<svg xmlns="http://www.w3.org/2000/svg" xmlns:xlink="http://www.w3.org/1999/xlink" width="1920" zoomAndPan="magnify" viewBox="0 0 1440 755.249977" height="1007" preserveAspectRatio="xMidYMid meet" version="1.0"><defs><filter x="0%" y="0%" width="100%" height="100%" id="d79c7249ec"><feColorMatrix values="0 0 0 0 1 0 0 0 0 1 0 0 0 0 1 0 0 0 1 0" color-interpolation-filters="sRGB"/></filter><mask id="b9042162e7"><g filter="url(#d79c7249ec)"><rect x="-144" width="1728" fill="#000000" y="-75.524998" height="906.299972" fill-opacity="0.8196"/></g></mask><clipPath id="735c9784be"><path d="M 2 5 L 87 5 L 87 42 L 2 42 Z M 2 5 " clip-rule="nonzero"/></clipPath><clipPath id="84fa81b012"><path d="M 20.273438 5.203125 C 10.351562 5.203125 2.277344 13.238281 2.277344 23.113281 C 2.277344 32.988281 10.351562 41.023438 20.273438 41.023438 L 68.324219 41.023438 C 78.246094 41.023438 86.320312 32.988281 86.320312 23.113281 C 86.320312 13.238281 78.246094 5.203125 68.324219 5.203125 Z M 20.273438 5.203125 " clip-rule="nonzero"/></clipPath><linearGradient x1="249.30839" gradientTransform="matrix(0.172806, 0, 0, 0.171976, 1.097123, -19.881186)" y1="144.274874" x2="250.690681" gradientUnits="userSpaceOnUse" y2="355.725143" id="2c8fbc0748"><stop stop-opacity="1" stop-color="rgb(15.402222%, 15.402222%, 15.402222%)" offset="0"/><stop stop-opacity="1" stop-color="rgb(15.283203%, 15.283203%, 15.283203%)" offset="0.015035"/><stop stop-opacity="1" stop-color="rgb(15.164185%, 15.164185%, 15.164185%)" offset="0.015625"/><stop stop-opacity="1" stop-color="rgb(15.045166%, 15.045166%, 15.045166%)" offset="0.03125"/><stop stop-opacity="1" stop-color="rgb(14.807129%, 14.807129%, 14.807129%)" offset="0.046875"/><stop stop-opacity="1" stop-color="rgb(14.569092%, 14.569092%, 14.569092%)" offset="0.0625"/><stop stop-opacity="1" stop-color="rgb(14.332581%, 14.332581%, 14.332581%)" offset="0.078125"/><stop stop-opacity="1" stop-color="rgb(14.094543%, 14.094543%, 14.094543%)" offset="0.09375"/><stop stop-opacity="1" stop-color="rgb(13.856506%, 13.856506%, 13.856506%)" offset="0.109375"/><stop stop-opacity="1" stop-color="rgb(13.618469%, 13.618469%, 13.618469%)" offset="0.125"/><stop stop-opacity="1" stop-color="rgb(13.380432%, 13.380432%, 13.380432%)" offset="0.140625"/><stop stop-opacity="1" stop-color="rgb(13.143921%, 13.143921%, 13.143921%)" offset="0.15625"/><stop stop-opacity="1" stop-color="rgb(12.905884%, 12.905884%, 12.905884%)" offset="0.171875"/><stop stop-opacity="1" stop-color="rgb(12.667847%, 12.667847%, 12.667847%)" offset="0.1875"/><stop stop-opacity="1" stop-color="rgb(12.42981%, 12.42981%, 12.42981%)" offset="0.203125"/><stop stop-opacity="1" stop-color="rgb(12.193298%, 12.193298%, 12.193298%)" offset="0.21875"/><stop stop-opacity="1" stop-color="rgb(11.955261%, 11.955261%, 11.955261%)" offset="0.234375"/><stop stop-opacity="1" stop-color="rgb(11.717224%, 11.717224%, 11.717224%)" offset="0.25"/><stop stop-opacity="1" stop-color="rgb(11.479187%, 11.479187%, 11.479187%)" offset="0.265625"/><stop stop-opacity="1" stop-color="rgb(11.242676%, 11.242676%, 11.242676%)" offset="0.28125"/><stop stop-opacity="1" stop-color="rgb(11.004639%, 11.004639%, 11.004639%)" offset="0.296875"/><stop stop-opacity="1" stop-color="rgb(10.766602%, 10.766602%, 10.766602%)" offset="0.3125"/><stop stop-opacity="1" stop-color="rgb(10.528564%, 10.528564%, 10.528564%)" offset="0.328125"/><stop stop-opacity="1" stop-color="rgb(10.290527%, 10.290527%, 10.290527%)" offset="0.34375"/><stop stop-opacity="1" stop-color="rgb(10.054016%, 10.054016%, 10.054016%)" offset="0.359375"/><stop stop-opacity="1" stop-color="rgb(9.815979%, 9.815979%, 9.815979%)" offset="0.375"/><stop stop-opacity="1" stop-color="rgb(9.577942%, 9.577942%, 9.577942%)" offset="0.390625"/><stop stop-opacity="1" stop-color="rgb(9.339905%, 9.339905%, 9.339905%)" offset="0.40625"/><stop stop-opacity="1" stop-color="rgb(9.103394%, 9.103394%, 9.103394%)" offset="0.421875"/><stop stop-opacity="1" stop-color="rgb(8.865356%, 8.865356%, 8.865356%)" offset="0.4375"/><stop stop-opacity="1" stop-color="rgb(8.627319%, 8.627319%, 8.627319%)" offset="0.453125"/><stop stop-opacity="1" stop-color="rgb(8.389282%, 8.389282%, 8.389282%)" offset="0.46875"/><stop stop-opacity="1" stop-color="rgb(8.152771%, 8.152771%, 8.152771%)" offset="0.484375"/><stop stop-opacity="1" stop-color="rgb(7.914734%, 7.914734%, 7.914734%)" offset="0.5"/><stop stop-opacity="1" stop-color="rgb(7.676697%, 7.676697%, 7.676697%)" offset="0.515625"/><stop stop-opacity="1" stop-color="rgb(7.43866%, 7.43866%, 7.43866%)" offset="0.53125"/><stop stop-opacity="1" stop-color="rgb(7.200623%, 7.200623%, 7.200623%)" offset="0.546875"/><stop stop-opacity="1" stop-color="rgb(6.964111%, 6.964111%, 6.964111%)" offset="0.5625"/><stop stop-opacity="1" stop-color="rgb(6.726074%, 6.726074%, 6.726074%)" offset="0.578125"/><stop stop-opacity="1" stop-color="rgb(6.488037%, 6.488037%, 6.488037%)" offset="0.59375"/><stop stop-opacity="1" stop-color="rgb(6.25%, 6.25%, 6.25%)" offset="0.609375"/><stop stop-opacity="1" stop-color="rgb(6.013489%, 6.013489%, 6.013489%)" offset="0.625"/><stop stop-opacity="1" stop-color="rgb(5.775452%, 5.775452%, 5.775452%)" offset="0.640625"/><stop stop-opacity="1" stop-color="rgb(5.537415%, 5.537415%, 5.537415%)" offset="0.65625"/><stop stop-opacity="1" stop-color="rgb(5.299377%, 5.299377%, 5.299377%)" offset="0.671875"/><stop stop-opacity="1" stop-color="rgb(5.062866%, 5.062866%, 5.062866%)" offset="0.6875"/><stop stop-opacity="1" stop-color="rgb(4.824829%, 4.824829%, 4.824829%)" offset="0.703125"/><stop stop-opacity="1" stop-color="rgb(4.586792%, 4.586792%, 4.586792%)" offset="0.71875"/><stop stop-opacity="1" stop-color="rgb(4.348755%, 4.348755%, 4.348755%)" offset="0.734375"/><stop stop-opacity="1" stop-color="rgb(4.110718%, 4.110718%, 4.110718%)" offset="0.75"/><stop stop-opacity="1" stop-color="rgb(3.874207%, 3.874207%, 3.874207%)" offset="0.765625"/><stop stop-opacity="1" stop-color="rgb(3.636169%, 3.636169%, 3.636169%)" offset="0.78125"/><stop stop-opacity="1" stop-color="rgb(3.398132%, 3.398132%, 3.398132%)" offset="0.796875"/><stop stop-opacity="1" stop-color="rgb(3.160095%, 3.160095%, 3.160095%)" offset="0.8125"/><stop stop-opacity="1" stop-color="rgb(2.923584%, 2.923584%, 2.923584%)" offset="0.828125"/><stop stop-opacity="1" stop-color="rgb(2.685547%, 2.685547%, 2.685547%)" offset="0.84375"/><stop stop-opacity="1" stop-color="rgb(2.44751%, 2.44751%, 2.44751%)" offset="0.859375"/><stop stop-opacity="1" stop-color="rgb(2.209473%, 2.209473%, 2.209473%)" offset="0.875"/><stop stop-opacity="1" stop-color="rgb(1.971436%, 1.971436%, 1.971436%)" offset="0.890625"/><stop stop-opacity="1" stop-color="rgb(1.734924%, 1.734924%, 1.734924%)" offset="0.90625"/><stop stop-opacity="1" stop-color="rgb(1.496887%, 1.496887%, 1.496887%)" offset="0.921875"/><stop stop-opacity="1" stop-color="rgb(1.25885%, 1.25885%, 1.25885%)" offset="0.9375"/><stop stop-opacity="1" stop-color="rgb(1.020813%, 1.020813%, 1.020813%)" offset="0.953125"/><stop stop-opacity="1" stop-color="rgb(0.784302%, 0.784302%, 0.784302%)" offset="0.96875"/><stop stop-opacity="1" stop-color="rgb(0.546265%, 0.546265%, 0.546265%)" offset="0.984375"/><stop stop-opacity="1" stop-color="rgb(0.308228%, 0.308228%, 0.308228%)" offset="0.984965"/><stop stop-opacity="1" stop-color="rgb(0.189209%, 0.189209%, 0.189209%)" offset="1"/></linearGradient><clipPath id="dea7e1f6bf"><path d="M 1.097656 4 L 88 4 L 88 43 L 1.097656 43 Z M 1.097656 4 " clip-rule="nonzero"/></clipPath><clipPath id="ba2c76001a"><path d="M 68 13.136719 L 68.835938 13.136719 L 68.835938 14 L 68 14 Z M 68 13.136719 " clip-rule="nonzero"/></clipPath><clipPath id="c1fb3f400b"><path d="M 68.46875 16 C 68.285156 16 68.140625 15.855469 68.140625 15.675781 L 68.140625 13.523438 C 68.140625 13.34375 68.285156 13.195312 68.46875 13.195312 C 68.648438 13.195312 68.796875 13.34375 68.796875 13.523438 L 68.796875 15.675781 C 68.796875 15.855469 68.648438 16 68.46875 16 Z M 68.46875 16 " clip-rule="nonzero"/></clipPath><clipPath id="b09b7996d1"><path d="M 68 13.136719 L 68.835938 13.136719 L 68.835938 15 L 68 15 Z M 68 13.136719 " clip-rule="nonzero"/></clipPath><clipPath id="e6acf351e7"><path d="M 68.46875 16 C 68.285156 16 68.140625 15.855469 68.140625 15.675781 L 68.140625 13.523438 C 68.140625 13.34375 68.285156 13.195312 68.46875 13.195312 C 68.648438 13.195312 68.796875 13.34375 68.796875 13.523438 L 68.796875 15.675781 C 68.796875 15.855469 68.648438 16 68.46875 16 Z M 68.46875 16 " clip-rule="nonzero"/></clipPath><clipPath id="485f76b9ab"><path d="M 68 14 L 68.835938 14 L 68.835938 15 L 68 15 Z M 68 14 " clip-rule="nonzero"/></clipPath><clipPath id="f1754842a8"><path d="M 68.46875 16 C 68.285156 16 68.140625 15.855469 68.140625 15.675781 L 68.140625 13.523438 C 68.140625 13.34375 68.285156 13.195312 68.46875 13.195312 C 68.648438 13.195312 68.796875 13.34375 68.796875 13.523438 L 68.796875 15.675781 C 68.796875 15.855469 68.648438 16 68.46875 16 Z M 68.46875 16 " clip-rule="nonzero"/></clipPath><clipPath id="7c69e491c7"><path d="M 68 14 L 68.835938 14 L 68.835938 16 L 68 16 Z M 68 14 " clip-rule="nonzero"/></clipPath><clipPath id="945743f9f4"><path d="M 68.46875 16 C 68.285156 16 68.140625 15.855469 68.140625 15.675781 L 68.140625 13.523438 C 68.140625 13.34375 68.285156 13.195312 68.46875 13.195312 C 68.648438 13.195312 68.796875 13.34375 68.796875 13.523438 L 68.796875 15.675781 C 68.796875 15.855469 68.648438 16 68.46875 16 Z M 68.46875 16 " clip-rule="nonzero"/></clipPath><clipPath id="9ea0370abf"><path d="M 68 15 L 68.835938 15 L 68.835938 16 L 68 16 Z M 68 15 " clip-rule="nonzero"/></clipPath><clipPath id="5f8cb51e2c"><path d="M 68.46875 16 C 68.285156 16 68.140625 15.855469 68.140625 15.675781 L 68.140625 13.523438 C 68.140625 13.34375 68.285156 13.195312 68.46875 13.195312 C 68.648438 13.195312 68.796875 13.34375 68.796875 13.523438 L 68.796875 15.675781 C 68.796875 15.855469 68.648438 16 68.46875 16 Z M 68.46875 16 " clip-rule="nonzero"/></clipPath><clipPath id="eb3676ca14"><path d="M 61.234375 16 L 63.480469 16 L 63.480469 17 L 61.234375 17 Z M 61.234375 16 " clip-rule="nonzero"/></clipPath><clipPath id="bc2bd0bbe2"><path d="M 63.382812 18.101562 C 63.253906 18.226562 63.042969 18.226562 62.917969 18.101562 L 61.386719 16.578125 C 61.257812 16.449219 61.257812 16.242188 61.386719 16.113281 C 61.515625 15.988281 61.722656 15.988281 61.851562 16.113281 L 63.382812 17.636719 C 63.507812 17.765625 63.507812 17.972656 63.382812 18.101562 Z M 63.382812 18.101562 " clip-rule="nonzero"/></clipPath><clipPath id="81253fef46"><path d="M 61.234375 16 L 63.480469 16 L 63.480469 18 L 61.234375 18 Z M 61.234375 16 " clip-rule="nonzero"/></clipPath><clipPath id="3a263fbad8"><path d="M 63.382812 18.101562 C 63.253906 18.226562 63.042969 18.226562 62.917969 18.101562 L 61.386719 16.578125 C 61.257812 16.449219 61.257812 16.242188 61.386719 16.113281 C 61.515625 15.988281 61.722656 15.988281 61.851562 16.113281 L 63.382812 17.636719 C 63.507812 17.765625 63.507812 17.972656 63.382812 18.101562 Z M 63.382812 18.101562 " clip-rule="nonzero"/></clipPath><clipPath id="e78b7e8fcd"><path d="M 61.234375 17 L 63.480469 17 L 63.480469 18.296875 L 61.234375 18.296875 Z M 61.234375 17 " clip-rule="nonzero"/></clipPath><clipPath id="3f2d88ecd9"><path d="M 63.382812 18.101562 C 63.253906 18.226562 63.042969 18.226562 62.917969 18.101562 L 61.386719 16.578125 C 61.257812 16.449219 61.257812 16.242188 61.386719 16.113281 C 61.515625 15.988281 61.722656 15.988281 61.851562 16.113281 L 63.382812 17.636719 C 63.507812 17.765625 63.507812 17.972656 63.382812 18.101562 Z M 63.382812 18.101562 " clip-rule="nonzero"/></clipPath><clipPath id="523ff68fe4"><path d="M 61.234375 18 L 63.480469 18 L 63.480469 18.296875 L 61.234375 18.296875 Z M 61.234375 18 " clip-rule="nonzero"/></clipPath><clipPath id="c0618b31a0"><path d="M 63.382812 18.101562 C 63.253906 18.226562 63.042969 18.226562 62.917969 18.101562 L 61.386719 16.578125 C 61.257812 16.449219 61.257812 16.242188 61.386719 16.113281 C 61.515625 15.988281 61.722656 15.988281 61.851562 16.113281 L 63.382812 17.636719 C 63.507812 17.765625 63.507812 17.972656 63.382812 18.101562 Z M 63.382812 18.101562 " clip-rule="nonzero"/></clipPath><clipPath id="63218e88d9"><path d="M 58.296875 22.769531 L 61.40625 22.769531 L 61.40625 23.628906 L 58.296875 23.628906 Z M 58.296875 22.769531 " clip-rule="nonzero"/></clipPath><clipPath id="c5c326b67f"><path d="M 61.273438 23.160156 C 61.273438 23.339844 61.128906 23.488281 60.945312 23.488281 L 58.785156 23.488281 C 58.601562 23.488281 58.457031 23.339844 58.457031 23.160156 C 58.457031 22.980469 58.601562 22.835938 58.785156 22.835938 L 60.945312 22.835938 C 61.128906 22.832031 61.273438 22.980469 61.273438 23.160156 Z M 61.273438 23.160156 " clip-rule="nonzero"/></clipPath><clipPath id="35595245ac"><path d="M 58.296875 23 L 61.40625 23 L 61.40625 23.628906 L 58.296875 23.628906 Z M 58.296875 23 " clip-rule="nonzero"/></clipPath><clipPath id="95fb0a1ca3"><path d="M 61.273438 23.160156 C 61.273438 23.339844 61.128906 23.488281 60.945312 23.488281 L 58.785156 23.488281 C 58.601562 23.488281 58.457031 23.339844 58.457031 23.160156 C 58.457031 22.980469 58.601562 22.835938 58.785156 22.835938 L 60.945312 22.835938 C 61.128906 22.832031 61.273438 22.980469 61.273438 23.160156 Z M 61.273438 23.160156 " clip-rule="nonzero"/></clipPath><clipPath id="c1aaa0fd14"><path d="M 61.234375 28.101562 L 63.480469 28.101562 L 63.480469 29 L 61.234375 29 Z M 61.234375 28.101562 " clip-rule="nonzero"/></clipPath><clipPath id="ce344b77a5"><path d="M 63.382812 28.222656 C 63.507812 28.347656 63.507812 28.558594 63.382812 28.683594 L 61.851562 30.207031 C 61.722656 30.335938 61.515625 30.335938 61.386719 30.207031 C 61.257812 30.078125 61.257812 29.871094 61.386719 29.746094 L 62.917969 28.222656 C 63.042969 28.09375 63.253906 28.09375 63.382812 28.222656 Z M 63.382812 28.222656 " clip-rule="nonzero"/></clipPath><clipPath id="c17299115c"><path d="M 61.234375 28.101562 L 63.480469 28.101562 L 63.480469 30 L 61.234375 30 Z M 61.234375 28.101562 " clip-rule="nonzero"/></clipPath><clipPath id="4bd3e1bdd8"><path d="M 63.382812 28.222656 C 63.507812 28.347656 63.507812 28.558594 63.382812 28.683594 L 61.851562 30.207031 C 61.722656 30.335938 61.515625 30.335938 61.386719 30.207031 C 61.257812 30.078125 61.257812 29.871094 61.386719 29.746094 L 62.917969 28.222656 C 63.042969 28.09375 63.253906 28.09375 63.382812 28.222656 Z M 63.382812 28.222656 " clip-rule="nonzero"/></clipPath><clipPath id="f3bf38c28d"><path d="M 61.234375 29 L 63.480469 29 L 63.480469 30 L 61.234375 30 Z M 61.234375 29 " clip-rule="nonzero"/></clipPath><clipPath id="a4887121d0"><path d="M 63.382812 28.222656 C 63.507812 28.347656 63.507812 28.558594 63.382812 28.683594 L 61.851562 30.207031 C 61.722656 30.335938 61.515625 30.335938 61.386719 30.207031 C 61.257812 30.078125 61.257812 29.871094 61.386719 29.746094 L 62.917969 28.222656 C 63.042969 28.09375 63.253906 28.09375 63.382812 28.222656 Z M 63.382812 28.222656 " clip-rule="nonzero"/></clipPath><clipPath id="132b6f1996"><path d="M 61.234375 29 L 63.480469 29 L 63.480469 30.335938 L 61.234375 30.335938 Z M 61.234375 29 " clip-rule="nonzero"/></clipPath><clipPath id="d1327e46b5"><path d="M 63.382812 28.222656 C 63.507812 28.347656 63.507812 28.558594 63.382812 28.683594 L 61.851562 30.207031 C 61.722656 30.335938 61.515625 30.335938 61.386719 30.207031 C 61.257812 30.078125 61.257812 29.871094 61.386719 29.746094 L 62.917969 28.222656 C 63.042969 28.09375 63.253906 28.09375 63.382812 28.222656 Z M 63.382812 28.222656 " clip-rule="nonzero"/></clipPath><clipPath id="8518febaa5"><path d="M 68 30.164062 L 68.835938 30.164062 L 68.835938 31 L 68 31 Z M 68 30.164062 " clip-rule="nonzero"/></clipPath><clipPath id="92d79483f4"><path d="M 68.46875 30.320312 C 68.648438 30.320312 68.796875 30.464844 68.796875 30.644531 L 68.796875 32.796875 C 68.796875 32.976562 68.648438 33.125 68.46875 33.125 C 68.285156 33.125 68.140625 32.976562 68.140625 32.796875 L 68.140625 30.644531 C 68.140625 30.464844 68.285156 30.320312 68.46875 30.320312 Z M 68.46875 30.320312 " clip-rule="nonzero"/></clipPath><clipPath id="a97d505a34"><path d="M 68 30.164062 L 68.835938 30.164062 L 68.835938 32 L 68 32 Z M 68 30.164062 " clip-rule="nonzero"/></clipPath><clipPath id="1c76029eb5"><path d="M 68.46875 30.320312 C 68.648438 30.320312 68.796875 30.464844 68.796875 30.644531 L 68.796875 32.796875 C 68.796875 32.976562 68.648438 33.125 68.46875 33.125 C 68.285156 33.125 68.140625 32.976562 68.140625 32.796875 L 68.140625 30.644531 C 68.140625 30.464844 68.285156 30.320312 68.46875 30.320312 Z M 68.46875 30.320312 " clip-rule="nonzero"/></clipPath><clipPath id="992660814e"><path d="M 68 31 L 68.835938 31 L 68.835938 32 L 68 32 Z M 68 31 " clip-rule="nonzero"/></clipPath><clipPath id="22f5bc1c75"><path d="M 68.46875 30.320312 C 68.648438 30.320312 68.796875 30.464844 68.796875 30.644531 L 68.796875 32.796875 C 68.796875 32.976562 68.648438 33.125 68.46875 33.125 C 68.285156 33.125 68.140625 32.976562 68.140625 32.796875 L 68.140625 30.644531 C 68.140625 30.464844 68.285156 30.320312 68.46875 30.320312 Z M 68.46875 30.320312 " clip-rule="nonzero"/></clipPath><clipPath id="cd41ceacdc"><path d="M 68 31 L 68.835938 31 L 68.835938 33 L 68 33 Z M 68 31 " clip-rule="nonzero"/></clipPath><clipPath id="8b9c70a2c1"><path d="M 68.46875 30.320312 C 68.648438 30.320312 68.796875 30.464844 68.796875 30.644531 L 68.796875 32.796875 C 68.796875 32.976562 68.648438 33.125 68.46875 33.125 C 68.285156 33.125 68.140625 32.976562 68.140625 32.796875 L 68.140625 30.644531 C 68.140625 30.464844 68.285156 30.320312 68.46875 30.320312 Z M 68.46875 30.320312 " clip-rule="nonzero"/></clipPath><clipPath id="cf25bd7ea9"><path d="M 68 32 L 68.835938 32 L 68.835938 33 L 68 33 Z M 68 32 " clip-rule="nonzero"/></clipPath><clipPath id="d110b96f24"><path d="M 68.46875 30.320312 C 68.648438 30.320312 68.796875 30.464844 68.796875 30.644531 L 68.796875 32.796875 C 68.796875 32.976562 68.648438 33.125 68.46875 33.125 C 68.285156 33.125 68.140625 32.976562 68.140625 32.796875 L 68.140625 30.644531 C 68.140625 30.464844 68.285156 30.320312 68.46875 30.320312 Z M 68.46875 30.320312 " clip-rule="nonzero"/></clipPath><clipPath id="3cfa683709"><path d="M 68 32 L 68.835938 32 L 68.835938 33.257812 L 68 33.257812 Z M 68 32 " clip-rule="nonzero"/></clipPath><clipPath id="becd2d35ba"><path d="M 68.46875 30.320312 C 68.648438 30.320312 68.796875 30.464844 68.796875 30.644531 L 68.796875 32.796875 C 68.796875 32.976562 68.648438 33.125 68.46875 33.125 C 68.285156 33.125 68.140625 32.976562 68.140625 32.796875 L 68.140625 30.644531 C 68.140625 30.464844 68.285156 30.320312 68.46875 30.320312 Z M 68.46875 30.320312 " clip-rule="nonzero"/></clipPath><clipPath id="060c230f8a"><path d="M 73.328125 28.101562 L 75.75 28.101562 L 75.75 29 L 73.328125 29 Z M 73.328125 28.101562 " clip-rule="nonzero"/></clipPath><clipPath id="656fd21e7a"><path d="M 73.554688 28.222656 C 73.679688 28.09375 73.890625 28.09375 74.019531 28.222656 L 75.546875 29.746094 C 75.675781 29.871094 75.675781 30.078125 75.546875 30.207031 C 75.417969 30.335938 75.210938 30.335938 75.082031 30.207031 L 73.554688 28.683594 C 73.425781 28.558594 73.425781 28.347656 73.554688 28.222656 Z M 73.554688 28.222656 " clip-rule="nonzero"/></clipPath><clipPath id="27dfaf4683"><path d="M 73.328125 28.101562 L 75.75 28.101562 L 75.75 30 L 73.328125 30 Z M 73.328125 28.101562 " clip-rule="nonzero"/></clipPath><clipPath id="4965405e93"><path d="M 73.554688 28.222656 C 73.679688 28.09375 73.890625 28.09375 74.019531 28.222656 L 75.546875 29.746094 C 75.675781 29.871094 75.675781 30.078125 75.546875 30.207031 C 75.417969 30.335938 75.210938 30.335938 75.082031 30.207031 L 73.554688 28.683594 C 73.425781 28.558594 73.425781 28.347656 73.554688 28.222656 Z M 73.554688 28.222656 " clip-rule="nonzero"/></clipPath><clipPath id="1a28f528f7"><path d="M 73.328125 29 L 75.75 29 L 75.75 30 L 73.328125 30 Z M 73.328125 29 " clip-rule="nonzero"/></clipPath><clipPath id="9aae182cf8"><path d="M 73.554688 28.222656 C 73.679688 28.09375 73.890625 28.09375 74.019531 28.222656 L 75.546875 29.746094 C 75.675781 29.871094 75.675781 30.078125 75.546875 30.207031 C 75.417969 30.335938 75.210938 30.335938 75.082031 30.207031 L 73.554688 28.683594 C 73.425781 28.558594 73.425781 28.347656 73.554688 28.222656 Z M 73.554688 28.222656 " clip-rule="nonzero"/></clipPath><clipPath id="c02b45b3bf"><path d="M 73.328125 29 L 75.75 29 L 75.75 30.335938 L 73.328125 30.335938 Z M 73.328125 29 " clip-rule="nonzero"/></clipPath><clipPath id="e916ffaf50"><path d="M 73.554688 28.222656 C 73.679688 28.09375 73.890625 28.09375 74.019531 28.222656 L 75.546875 29.746094 C 75.675781 29.871094 75.675781 30.078125 75.546875 30.207031 C 75.417969 30.335938 75.210938 30.335938 75.082031 30.207031 L 73.554688 28.683594 C 73.425781 28.558594 73.425781 28.347656 73.554688 28.222656 Z M 73.554688 28.222656 " clip-rule="nonzero"/></clipPath><clipPath id="87089f6ded"><path d="M 75.578125 22.769531 L 78.515625 22.769531 L 78.515625 23.628906 L 75.578125 23.628906 Z M 75.578125 22.769531 " clip-rule="nonzero"/></clipPath><clipPath id="55b090a43b"><path d="M 75.660156 23.160156 C 75.660156 22.980469 75.808594 22.835938 75.988281 22.835938 L 78.152344 22.835938 C 78.332031 22.835938 78.480469 22.980469 78.480469 23.160156 C 78.480469 23.339844 78.332031 23.488281 78.152344 23.488281 L 75.988281 23.488281 C 75.808594 23.488281 75.660156 23.339844 75.660156 23.160156 Z M 75.660156 23.160156 " clip-rule="nonzero"/></clipPath><clipPath id="f9e6e0b87f"><path d="M 75.578125 23 L 78.515625 23 L 78.515625 23.628906 L 75.578125 23.628906 Z M 75.578125 23 " clip-rule="nonzero"/></clipPath><clipPath id="6741fb3eef"><path d="M 75.660156 23.160156 C 75.660156 22.980469 75.808594 22.835938 75.988281 22.835938 L 78.152344 22.835938 C 78.332031 22.835938 78.480469 22.980469 78.480469 23.160156 C 78.480469 23.339844 78.332031 23.488281 78.152344 23.488281 L 75.988281 23.488281 C 75.808594 23.488281 75.660156 23.339844 75.660156 23.160156 Z M 75.660156 23.160156 " clip-rule="nonzero"/></clipPath><clipPath id="48927e7260"><path d="M 73.328125 16 L 75.75 16 L 75.75 17 L 73.328125 17 Z M 73.328125 16 " clip-rule="nonzero"/></clipPath><clipPath id="4b67c8d546"><path d="M 73.554688 18.101562 C 73.425781 17.972656 73.425781 17.765625 73.554688 17.636719 L 75.082031 16.113281 C 75.210938 15.988281 75.417969 15.988281 75.546875 16.113281 C 75.675781 16.242188 75.675781 16.449219 75.546875 16.578125 L 74.019531 18.101562 C 73.890625 18.226562 73.683594 18.226562 73.554688 18.101562 Z M 73.554688 18.101562 " clip-rule="nonzero"/></clipPath><clipPath id="9e0d62a53a"><path d="M 73.328125 16 L 75.75 16 L 75.75 18 L 73.328125 18 Z M 73.328125 16 " clip-rule="nonzero"/></clipPath><clipPath id="d09a460b74"><path d="M 73.554688 18.101562 C 73.425781 17.972656 73.425781 17.765625 73.554688 17.636719 L 75.082031 16.113281 C 75.210938 15.988281 75.417969 15.988281 75.546875 16.113281 C 75.675781 16.242188 75.675781 16.449219 75.546875 16.578125 L 74.019531 18.101562 C 73.890625 18.226562 73.683594 18.226562 73.554688 18.101562 Z M 73.554688 18.101562 " clip-rule="nonzero"/></clipPath><clipPath id="0be1c9f02e"><path d="M 73.328125 17 L 75.75 17 L 75.75 18.296875 L 73.328125 18.296875 Z M 73.328125 17 " clip-rule="nonzero"/></clipPath><clipPath id="03967f147b"><path d="M 73.554688 18.101562 C 73.425781 17.972656 73.425781 17.765625 73.554688 17.636719 L 75.082031 16.113281 C 75.210938 15.988281 75.417969 15.988281 75.546875 16.113281 C 75.675781 16.242188 75.675781 16.449219 75.546875 16.578125 L 74.019531 18.101562 C 73.890625 18.226562 73.683594 18.226562 73.554688 18.101562 Z M 73.554688 18.101562 " clip-rule="nonzero"/></clipPath><clipPath id="54e981daec"><path d="M 73.328125 18 L 75.75 18 L 75.75 18.296875 L 73.328125 18.296875 Z M 73.328125 18 " clip-rule="nonzero"/></clipPath><clipPath id="0997aa7ec5"><path d="M 73.554688 18.101562 C 73.425781 17.972656 73.425781 17.765625 73.554688 17.636719 L 75.082031 16.113281 C 75.210938 15.988281 75.417969 15.988281 75.546875 16.113281 C 75.675781 16.242188 75.675781 16.449219 75.546875 16.578125 L 74.019531 18.101562 C 73.890625 18.226562 73.683594 18.226562 73.554688 18.101562 Z M 73.554688 18.101562 " clip-rule="nonzero"/></clipPath><clipPath id="466de5e97e"><path d="M 62 17 L 69 17 L 69 19 L 62 19 Z M 62 17 " clip-rule="nonzero"/></clipPath><clipPath id="81bed1e343"><path d="M 68.46875 16.65625 C 64.859375 16.65625 61.933594 19.570312 61.933594 23.160156 C 61.933594 26.75 64.859375 29.660156 68.46875 29.660156 C 72.074219 29.660156 75 26.75 75 23.160156 C 75 19.570312 72.078125 16.65625 68.46875 16.65625 Z M 68.515625 28.773438 C 68.5 28.773438 68.484375 28.777344 68.46875 28.777344 C 65.351562 28.777344 62.824219 26.261719 62.824219 23.160156 C 62.824219 20.058594 65.351562 17.546875 68.46875 17.546875 C 68.484375 17.546875 68.5 17.546875 68.515625 17.546875 Z M 68.515625 28.773438 " clip-rule="nonzero"/></clipPath><clipPath id="cd2520bbce"><path d="M 62 18 L 69 18 L 69 19 L 62 19 Z M 62 18 " clip-rule="nonzero"/></clipPath><clipPath id="7ad66532a7"><path d="M 68.46875 16.65625 C 64.859375 16.65625 61.933594 19.570312 61.933594 23.160156 C 61.933594 26.75 64.859375 29.660156 68.46875 29.660156 C 72.074219 29.660156 75 26.75 75 23.160156 C 75 19.570312 72.078125 16.65625 68.46875 16.65625 Z M 68.515625 28.773438 C 68.5 28.773438 68.484375 28.777344 68.46875 28.777344 C 65.351562 28.777344 62.824219 26.261719 62.824219 23.160156 C 62.824219 20.058594 65.351562 17.546875 68.46875 17.546875 C 68.484375 17.546875 68.5 17.546875 68.515625 17.546875 Z M 68.515625 28.773438 " clip-rule="nonzero"/></clipPath><clipPath id="c1c28b87cc"><path d="M 62 18 L 69 18 L 69 20 L 62 20 Z M 62 18 " clip-rule="nonzero"/></clipPath><clipPath id="6a49c74898"><path d="M 68.46875 16.65625 C 64.859375 16.65625 61.933594 19.570312 61.933594 23.160156 C 61.933594 26.75 64.859375 29.660156 68.46875 29.660156 C 72.074219 29.660156 75 26.75 75 23.160156 C 75 19.570312 72.078125 16.65625 68.46875 16.65625 Z M 68.515625 28.773438 C 68.5 28.773438 68.484375 28.777344 68.46875 28.777344 C 65.351562 28.777344 62.824219 26.261719 62.824219 23.160156 C 62.824219 20.058594 65.351562 17.546875 68.46875 17.546875 C 68.484375 17.546875 68.5 17.546875 68.515625 17.546875 Z M 68.515625 28.773438 " clip-rule="nonzero"/></clipPath><clipPath id="4ee5f8e95e"><path d="M 62 19 L 69 19 L 69 20 L 62 20 Z M 62 19 " clip-rule="nonzero"/></clipPath><clipPath id="631376a853"><path d="M 68.46875 16.65625 C 64.859375 16.65625 61.933594 19.570312 61.933594 23.160156 C 61.933594 26.75 64.859375 29.660156 68.46875 29.660156 C 72.074219 29.660156 75 26.75 75 23.160156 C 75 19.570312 72.078125 16.65625 68.46875 16.65625 Z M 68.515625 28.773438 C 68.5 28.773438 68.484375 28.777344 68.46875 28.777344 C 65.351562 28.777344 62.824219 26.261719 62.824219 23.160156 C 62.824219 20.058594 65.351562 17.546875 68.46875 17.546875 C 68.484375 17.546875 68.5 17.546875 68.515625 17.546875 Z M 68.515625 28.773438 " clip-rule="nonzero"/></clipPath><clipPath id="8d545afa22"><path d="M 62 19 L 69 19 L 69 21 L 62 21 Z M 62 19 " clip-rule="nonzero"/></clipPath><clipPath id="84211a8f9f"><path d="M 68.46875 16.65625 C 64.859375 16.65625 61.933594 19.570312 61.933594 23.160156 C 61.933594 26.75 64.859375 29.660156 68.46875 29.660156 C 72.074219 29.660156 75 26.75 75 23.160156 C 75 19.570312 72.078125 16.65625 68.46875 16.65625 Z M 68.515625 28.773438 C 68.5 28.773438 68.484375 28.777344 68.46875 28.777344 C 65.351562 28.777344 62.824219 26.261719 62.824219 23.160156 C 62.824219 20.058594 65.351562 17.546875 68.46875 17.546875 C 68.484375 17.546875 68.5 17.546875 68.515625 17.546875 Z M 68.515625 28.773438 " clip-rule="nonzero"/></clipPath><clipPath id="2a721981d3"><path d="M 62 20 L 69 20 L 69 21 L 62 21 Z M 62 20 " clip-rule="nonzero"/></clipPath><clipPath id="c9646356b4"><path d="M 68.46875 16.65625 C 64.859375 16.65625 61.933594 19.570312 61.933594 23.160156 C 61.933594 26.75 64.859375 29.660156 68.46875 29.660156 C 72.074219 29.660156 75 26.75 75 23.160156 C 75 19.570312 72.078125 16.65625 68.46875 16.65625 Z M 68.515625 28.773438 C 68.5 28.773438 68.484375 28.777344 68.46875 28.777344 C 65.351562 28.777344 62.824219 26.261719 62.824219 23.160156 C 62.824219 20.058594 65.351562 17.546875 68.46875 17.546875 C 68.484375 17.546875 68.5 17.546875 68.515625 17.546875 Z M 68.515625 28.773438 " clip-rule="nonzero"/></clipPath><clipPath id="3bfafffadc"><path d="M 62 20 L 69 20 L 69 22 L 62 22 Z M 62 20 " clip-rule="nonzero"/></clipPath><clipPath id="a74ffd9cb9"><path d="M 68.46875 16.65625 C 64.859375 16.65625 61.933594 19.570312 61.933594 23.160156 C 61.933594 26.75 64.859375 29.660156 68.46875 29.660156 C 72.074219 29.660156 75 26.75 75 23.160156 C 75 19.570312 72.078125 16.65625 68.46875 16.65625 Z M 68.515625 28.773438 C 68.5 28.773438 68.484375 28.777344 68.46875 28.777344 C 65.351562 28.777344 62.824219 26.261719 62.824219 23.160156 C 62.824219 20.058594 65.351562 17.546875 68.46875 17.546875 C 68.484375 17.546875 68.5 17.546875 68.515625 17.546875 Z M 68.515625 28.773438 " clip-rule="nonzero"/></clipPath><clipPath id="fa5b3b4ec3"><path d="M 62 21 L 69 21 L 69 23 L 62 23 Z M 62 21 " clip-rule="nonzero"/></clipPath><clipPath id="29899117d4"><path d="M 68.46875 16.65625 C 64.859375 16.65625 61.933594 19.570312 61.933594 23.160156 C 61.933594 26.75 64.859375 29.660156 68.46875 29.660156 C 72.074219 29.660156 75 26.75 75 23.160156 C 75 19.570312 72.078125 16.65625 68.46875 16.65625 Z M 68.515625 28.773438 C 68.5 28.773438 68.484375 28.777344 68.46875 28.777344 C 65.351562 28.777344 62.824219 26.261719 62.824219 23.160156 C 62.824219 20.058594 65.351562 17.546875 68.46875 17.546875 C 68.484375 17.546875 68.5 17.546875 68.515625 17.546875 Z M 68.515625 28.773438 " clip-rule="nonzero"/></clipPath><clipPath id="48f910ca76"><path d="M 62 22 L 69 22 L 69 23 L 62 23 Z M 62 22 " clip-rule="nonzero"/></clipPath><clipPath id="ec9f215494"><path d="M 68.46875 16.65625 C 64.859375 16.65625 61.933594 19.570312 61.933594 23.160156 C 61.933594 26.75 64.859375 29.660156 68.46875 29.660156 C 72.074219 29.660156 75 26.75 75 23.160156 C 75 19.570312 72.078125 16.65625 68.46875 16.65625 Z M 68.515625 28.773438 C 68.5 28.773438 68.484375 28.777344 68.46875 28.777344 C 65.351562 28.777344 62.824219 26.261719 62.824219 23.160156 C 62.824219 20.058594 65.351562 17.546875 68.46875 17.546875 C 68.484375 17.546875 68.5 17.546875 68.515625 17.546875 Z M 68.515625 28.773438 " clip-rule="nonzero"/></clipPath><clipPath id="484af10db8"><path d="M 62 22 L 69 22 L 69 24 L 62 24 Z M 62 22 " clip-rule="nonzero"/></clipPath><clipPath id="539b200b40"><path d="M 68.46875 16.65625 C 64.859375 16.65625 61.933594 19.570312 61.933594 23.160156 C 61.933594 26.75 64.859375 29.660156 68.46875 29.660156 C 72.074219 29.660156 75 26.75 75 23.160156 C 75 19.570312 72.078125 16.65625 68.46875 16.65625 Z M 68.515625 28.773438 C 68.5 28.773438 68.484375 28.777344 68.46875 28.777344 C 65.351562 28.777344 62.824219 26.261719 62.824219 23.160156 C 62.824219 20.058594 65.351562 17.546875 68.46875 17.546875 C 68.484375 17.546875 68.5 17.546875 68.515625 17.546875 Z M 68.515625 28.773438 " clip-rule="nonzero"/></clipPath><clipPath id="c892be4bbd"><path d="M 62 23 L 69 23 L 69 24 L 62 24 Z M 62 23 " clip-rule="nonzero"/></clipPath><clipPath id="fdfff62d48"><path d="M 68.46875 16.65625 C 64.859375 16.65625 61.933594 19.570312 61.933594 23.160156 C 61.933594 26.75 64.859375 29.660156 68.46875 29.660156 C 72.074219 29.660156 75 26.75 75 23.160156 C 75 19.570312 72.078125 16.65625 68.46875 16.65625 Z M 68.515625 28.773438 C 68.5 28.773438 68.484375 28.777344 68.46875 28.777344 C 65.351562 28.777344 62.824219 26.261719 62.824219 23.160156 C 62.824219 20.058594 65.351562 17.546875 68.46875 17.546875 C 68.484375 17.546875 68.5 17.546875 68.515625 17.546875 Z M 68.515625 28.773438 " clip-rule="nonzero"/></clipPath><clipPath id="55eb1546c2"><path d="M 62 23 L 69 23 L 69 25 L 62 25 Z M 62 23 " clip-rule="nonzero"/></clipPath><clipPath id="096509b326"><path d="M 68.46875 16.65625 C 64.859375 16.65625 61.933594 19.570312 61.933594 23.160156 C 61.933594 26.75 64.859375 29.660156 68.46875 29.660156 C 72.074219 29.660156 75 26.75 75 23.160156 C 75 19.570312 72.078125 16.65625 68.46875 16.65625 Z M 68.515625 28.773438 C 68.5 28.773438 68.484375 28.777344 68.46875 28.777344 C 65.351562 28.777344 62.824219 26.261719 62.824219 23.160156 C 62.824219 20.058594 65.351562 17.546875 68.46875 17.546875 C 68.484375 17.546875 68.5 17.546875 68.515625 17.546875 Z M 68.515625 28.773438 " clip-rule="nonzero"/></clipPath><clipPath id="49367b00da"><path d="M 62 24 L 69 24 L 69 25 L 62 25 Z M 62 24 " clip-rule="nonzero"/></clipPath><clipPath id="f90d5b6e3d"><path d="M 68.46875 16.65625 C 64.859375 16.65625 61.933594 19.570312 61.933594 23.160156 C 61.933594 26.75 64.859375 29.660156 68.46875 29.660156 C 72.074219 29.660156 75 26.75 75 23.160156 C 75 19.570312 72.078125 16.65625 68.46875 16.65625 Z M 68.515625 28.773438 C 68.5 28.773438 68.484375 28.777344 68.46875 28.777344 C 65.351562 28.777344 62.824219 26.261719 62.824219 23.160156 C 62.824219 20.058594 65.351562 17.546875 68.46875 17.546875 C 68.484375 17.546875 68.5 17.546875 68.515625 17.546875 Z M 68.515625 28.773438 " clip-rule="nonzero"/></clipPath><clipPath id="3aa32e809a"><path d="M 62 24 L 69 24 L 69 26 L 62 26 Z M 62 24 " clip-rule="nonzero"/></clipPath><clipPath id="b74e8558f0"><path d="M 68.46875 16.65625 C 64.859375 16.65625 61.933594 19.570312 61.933594 23.160156 C 61.933594 26.75 64.859375 29.660156 68.46875 29.660156 C 72.074219 29.660156 75 26.75 75 23.160156 C 75 19.570312 72.078125 16.65625 68.46875 16.65625 Z M 68.515625 28.773438 C 68.5 28.773438 68.484375 28.777344 68.46875 28.777344 C 65.351562 28.777344 62.824219 26.261719 62.824219 23.160156 C 62.824219 20.058594 65.351562 17.546875 68.46875 17.546875 C 68.484375 17.546875 68.5 17.546875 68.515625 17.546875 Z M 68.515625 28.773438 " clip-rule="nonzero"/></clipPath><clipPath id="d0ead955f5"><path d="M 62 25 L 69 25 L 69 27 L 62 27 Z M 62 25 " clip-rule="nonzero"/></clipPath><clipPath id="4b38ad0554"><path d="M 68.46875 16.65625 C 64.859375 16.65625 61.933594 19.570312 61.933594 23.160156 C 61.933594 26.75 64.859375 29.660156 68.46875 29.660156 C 72.074219 29.660156 75 26.75 75 23.160156 C 75 19.570312 72.078125 16.65625 68.46875 16.65625 Z M 68.515625 28.773438 C 68.5 28.773438 68.484375 28.777344 68.46875 28.777344 C 65.351562 28.777344 62.824219 26.261719 62.824219 23.160156 C 62.824219 20.058594 65.351562 17.546875 68.46875 17.546875 C 68.484375 17.546875 68.5 17.546875 68.515625 17.546875 Z M 68.515625 28.773438 " clip-rule="nonzero"/></clipPath><clipPath id="6c01098b6f"><path d="M 62 26 L 69 26 L 69 27 L 62 27 Z M 62 26 " clip-rule="nonzero"/></clipPath><clipPath id="7da4baee9d"><path d="M 68.46875 16.65625 C 64.859375 16.65625 61.933594 19.570312 61.933594 23.160156 C 61.933594 26.75 64.859375 29.660156 68.46875 29.660156 C 72.074219 29.660156 75 26.75 75 23.160156 C 75 19.570312 72.078125 16.65625 68.46875 16.65625 Z M 68.515625 28.773438 C 68.5 28.773438 68.484375 28.777344 68.46875 28.777344 C 65.351562 28.777344 62.824219 26.261719 62.824219 23.160156 C 62.824219 20.058594 65.351562 17.546875 68.46875 17.546875 C 68.484375 17.546875 68.5 17.546875 68.515625 17.546875 Z M 68.515625 28.773438 " clip-rule="nonzero"/></clipPath><clipPath id="90588105a6"><path d="M 62 26 L 69 26 L 69 28 L 62 28 Z M 62 26 " clip-rule="nonzero"/></clipPath><clipPath id="5e056653e5"><path d="M 68.46875 16.65625 C 64.859375 16.65625 61.933594 19.570312 61.933594 23.160156 C 61.933594 26.75 64.859375 29.660156 68.46875 29.660156 C 72.074219 29.660156 75 26.75 75 23.160156 C 75 19.570312 72.078125 16.65625 68.46875 16.65625 Z M 68.515625 28.773438 C 68.5 28.773438 68.484375 28.777344 68.46875 28.777344 C 65.351562 28.777344 62.824219 26.261719 62.824219 23.160156 C 62.824219 20.058594 65.351562 17.546875 68.46875 17.546875 C 68.484375 17.546875 68.5 17.546875 68.515625 17.546875 Z M 68.515625 28.773438 " clip-rule="nonzero"/></clipPath><clipPath id="ec9b47105e"><path d="M 62 27 L 69 27 L 69 28 L 62 28 Z M 62 27 " clip-rule="nonzero"/></clipPath><clipPath id="9b05df24f0"><path d="M 68.46875 16.65625 C 64.859375 16.65625 61.933594 19.570312 61.933594 23.160156 C 61.933594 26.75 64.859375 29.660156 68.46875 29.660156 C 72.074219 29.660156 75 26.75 75 23.160156 C 75 19.570312 72.078125 16.65625 68.46875 16.65625 Z M 68.515625 28.773438 C 68.5 28.773438 68.484375 28.777344 68.46875 28.777344 C 65.351562 28.777344 62.824219 26.261719 62.824219 23.160156 C 62.824219 20.058594 65.351562 17.546875 68.46875 17.546875 C 68.484375 17.546875 68.5 17.546875 68.515625 17.546875 Z M 68.515625 28.773438 " clip-rule="nonzero"/></clipPath><clipPath id="7f71833af3"><path d="M 62 27 L 69 27 L 69 29 L 62 29 Z M 62 27 " clip-rule="nonzero"/></clipPath><clipPath id="2da726c714"><path d="M 68.46875 16.65625 C 64.859375 16.65625 61.933594 19.570312 61.933594 23.160156 C 61.933594 26.75 64.859375 29.660156 68.46875 29.660156 C 72.074219 29.660156 75 26.75 75 23.160156 C 75 19.570312 72.078125 16.65625 68.46875 16.65625 Z M 68.515625 28.773438 C 68.5 28.773438 68.484375 28.777344 68.46875 28.777344 C 65.351562 28.777344 62.824219 26.261719 62.824219 23.160156 C 62.824219 20.058594 65.351562 17.546875 68.46875 17.546875 C 68.484375 17.546875 68.5 17.546875 68.515625 17.546875 Z M 68.515625 28.773438 " clip-rule="nonzero"/></clipPath><clipPath id="5a4c714834"><path d="M 62 28 L 69 28 L 69 29 L 62 29 Z M 62 28 " clip-rule="nonzero"/></clipPath><clipPath id="664fb1f05e"><path d="M 68.46875 16.65625 C 64.859375 16.65625 61.933594 19.570312 61.933594 23.160156 C 61.933594 26.75 64.859375 29.660156 68.46875 29.660156 C 72.074219 29.660156 75 26.75 75 23.160156 C 75 19.570312 72.078125 16.65625 68.46875 16.65625 Z M 68.515625 28.773438 C 68.5 28.773438 68.484375 28.777344 68.46875 28.777344 C 65.351562 28.777344 62.824219 26.261719 62.824219 23.160156 C 62.824219 20.058594 65.351562 17.546875 68.46875 17.546875 C 68.484375 17.546875 68.5 17.546875 68.515625 17.546875 Z M 68.515625 28.773438 " clip-rule="nonzero"/></clipPath><clipPath id="291b0b81e3"><path d="M 61.925781 16.578125 L 75 16.578125 L 75 17 L 61.925781 17 Z M 61.925781 16.578125 " clip-rule="nonzero"/></clipPath><clipPath id="1cc70ed253"><path d="M 68.46875 16.65625 C 64.859375 16.65625 61.933594 19.570312 61.933594 23.160156 C 61.933594 26.75 64.859375 29.660156 68.46875 29.660156 C 72.074219 29.660156 75 26.75 75 23.160156 C 75 19.570312 72.078125 16.65625 68.46875 16.65625 Z M 68.515625 28.773438 C 68.5 28.773438 68.484375 28.777344 68.46875 28.777344 C 65.351562 28.777344 62.824219 26.261719 62.824219 23.160156 C 62.824219 20.058594 65.351562 17.546875 68.46875 17.546875 C 68.484375 17.546875 68.5 17.546875 68.515625 17.546875 Z M 68.515625 28.773438 " clip-rule="nonzero"/></clipPath><clipPath id="e7bbd421ef"><path d="M 61.925781 16.578125 L 75 16.578125 L 75 18 L 61.925781 18 Z M 61.925781 16.578125 " clip-rule="nonzero"/></clipPath><clipPath id="91506a0eac"><path d="M 68.46875 16.65625 C 64.859375 16.65625 61.933594 19.570312 61.933594 23.160156 C 61.933594 26.75 64.859375 29.660156 68.46875 29.660156 C 72.074219 29.660156 75 26.75 75 23.160156 C 75 19.570312 72.078125 16.65625 68.46875 16.65625 Z M 68.515625 28.773438 C 68.5 28.773438 68.484375 28.777344 68.46875 28.777344 C 65.351562 28.777344 62.824219 26.261719 62.824219 23.160156 C 62.824219 20.058594 65.351562 17.546875 68.46875 17.546875 C 68.484375 17.546875 68.5 17.546875 68.515625 17.546875 Z M 68.515625 28.773438 " clip-rule="nonzero"/></clipPath><clipPath id="90cc6b40be"><path d="M 61.925781 17 L 75 17 L 75 19 L 61.925781 19 Z M 61.925781 17 " clip-rule="nonzero"/></clipPath><clipPath id="6f723a3325"><path d="M 68.46875 16.65625 C 64.859375 16.65625 61.933594 19.570312 61.933594 23.160156 C 61.933594 26.75 64.859375 29.660156 68.46875 29.660156 C 72.074219 29.660156 75 26.75 75 23.160156 C 75 19.570312 72.078125 16.65625 68.46875 16.65625 Z M 68.515625 28.773438 C 68.5 28.773438 68.484375 28.777344 68.46875 28.777344 C 65.351562 28.777344 62.824219 26.261719 62.824219 23.160156 C 62.824219 20.058594 65.351562 17.546875 68.46875 17.546875 C 68.484375 17.546875 68.5 17.546875 68.515625 17.546875 Z M 68.515625 28.773438 " clip-rule="nonzero"/></clipPath><clipPath id="997b9b3e81"><path d="M 61.925781 18 L 75 18 L 75 19 L 61.925781 19 Z M 61.925781 18 " clip-rule="nonzero"/></clipPath><clipPath id="601b25dbbd"><path d="M 68.46875 16.65625 C 64.859375 16.65625 61.933594 19.570312 61.933594 23.160156 C 61.933594 26.75 64.859375 29.660156 68.46875 29.660156 C 72.074219 29.660156 75 26.75 75 23.160156 C 75 19.570312 72.078125 16.65625 68.46875 16.65625 Z M 68.515625 28.773438 C 68.5 28.773438 68.484375 28.777344 68.46875 28.777344 C 65.351562 28.777344 62.824219 26.261719 62.824219 23.160156 C 62.824219 20.058594 65.351562 17.546875 68.46875 17.546875 C 68.484375 17.546875 68.5 17.546875 68.515625 17.546875 Z M 68.515625 28.773438 " clip-rule="nonzero"/></clipPath><clipPath id="3554f74e32"><path d="M 61.925781 18 L 75 18 L 75 20 L 61.925781 20 Z M 61.925781 18 " clip-rule="nonzero"/></clipPath><clipPath id="1938de92e1"><path d="M 68.46875 16.65625 C 64.859375 16.65625 61.933594 19.570312 61.933594 23.160156 C 61.933594 26.75 64.859375 29.660156 68.46875 29.660156 C 72.074219 29.660156 75 26.75 75 23.160156 C 75 19.570312 72.078125 16.65625 68.46875 16.65625 Z M 68.515625 28.773438 C 68.5 28.773438 68.484375 28.777344 68.46875 28.777344 C 65.351562 28.777344 62.824219 26.261719 62.824219 23.160156 C 62.824219 20.058594 65.351562 17.546875 68.46875 17.546875 C 68.484375 17.546875 68.5 17.546875 68.515625 17.546875 Z M 68.515625 28.773438 " clip-rule="nonzero"/></clipPath><clipPath id="1956aa7f65"><path d="M 61.925781 19 L 75 19 L 75 20 L 61.925781 20 Z M 61.925781 19 " clip-rule="nonzero"/></clipPath><clipPath id="d6ce0f9bb9"><path d="M 68.46875 16.65625 C 64.859375 16.65625 61.933594 19.570312 61.933594 23.160156 C 61.933594 26.75 64.859375 29.660156 68.46875 29.660156 C 72.074219 29.660156 75 26.75 75 23.160156 C 75 19.570312 72.078125 16.65625 68.46875 16.65625 Z M 68.515625 28.773438 C 68.5 28.773438 68.484375 28.777344 68.46875 28.777344 C 65.351562 28.777344 62.824219 26.261719 62.824219 23.160156 C 62.824219 20.058594 65.351562 17.546875 68.46875 17.546875 C 68.484375 17.546875 68.5 17.546875 68.515625 17.546875 Z M 68.515625 28.773438 " clip-rule="nonzero"/></clipPath><clipPath id="adfa87ed51"><path d="M 61.925781 19 L 75 19 L 75 21 L 61.925781 21 Z M 61.925781 19 " clip-rule="nonzero"/></clipPath><clipPath id="4b6470b663"><path d="M 68.46875 16.65625 C 64.859375 16.65625 61.933594 19.570312 61.933594 23.160156 C 61.933594 26.75 64.859375 29.660156 68.46875 29.660156 C 72.074219 29.660156 75 26.75 75 23.160156 C 75 19.570312 72.078125 16.65625 68.46875 16.65625 Z M 68.515625 28.773438 C 68.5 28.773438 68.484375 28.777344 68.46875 28.777344 C 65.351562 28.777344 62.824219 26.261719 62.824219 23.160156 C 62.824219 20.058594 65.351562 17.546875 68.46875 17.546875 C 68.484375 17.546875 68.5 17.546875 68.515625 17.546875 Z M 68.515625 28.773438 " clip-rule="nonzero"/></clipPath><clipPath id="fe3e71bab3"><path d="M 61.925781 20 L 75 20 L 75 21 L 61.925781 21 Z M 61.925781 20 " clip-rule="nonzero"/></clipPath><clipPath id="d89577cfe2"><path d="M 68.46875 16.65625 C 64.859375 16.65625 61.933594 19.570312 61.933594 23.160156 C 61.933594 26.75 64.859375 29.660156 68.46875 29.660156 C 72.074219 29.660156 75 26.75 75 23.160156 C 75 19.570312 72.078125 16.65625 68.46875 16.65625 Z M 68.515625 28.773438 C 68.5 28.773438 68.484375 28.777344 68.46875 28.777344 C 65.351562 28.777344 62.824219 26.261719 62.824219 23.160156 C 62.824219 20.058594 65.351562 17.546875 68.46875 17.546875 C 68.484375 17.546875 68.5 17.546875 68.515625 17.546875 Z M 68.515625 28.773438 " clip-rule="nonzero"/></clipPath><clipPath id="1a6902952b"><path d="M 61.925781 20 L 75 20 L 75 22 L 61.925781 22 Z M 61.925781 20 " clip-rule="nonzero"/></clipPath><clipPath id="472372bbf4"><path d="M 68.46875 16.65625 C 64.859375 16.65625 61.933594 19.570312 61.933594 23.160156 C 61.933594 26.75 64.859375 29.660156 68.46875 29.660156 C 72.074219 29.660156 75 26.75 75 23.160156 C 75 19.570312 72.078125 16.65625 68.46875 16.65625 Z M 68.515625 28.773438 C 68.5 28.773438 68.484375 28.777344 68.46875 28.777344 C 65.351562 28.777344 62.824219 26.261719 62.824219 23.160156 C 62.824219 20.058594 65.351562 17.546875 68.46875 17.546875 C 68.484375 17.546875 68.5 17.546875 68.515625 17.546875 Z M 68.515625 28.773438 " clip-rule="nonzero"/></clipPath><clipPath id="bc3d12290f"><path d="M 61.925781 21 L 75 21 L 75 23 L 61.925781 23 Z M 61.925781 21 " clip-rule="nonzero"/></clipPath><clipPath id="a700e8ab7d"><path d="M 68.46875 16.65625 C 64.859375 16.65625 61.933594 19.570312 61.933594 23.160156 C 61.933594 26.75 64.859375 29.660156 68.46875 29.660156 C 72.074219 29.660156 75 26.75 75 23.160156 C 75 19.570312 72.078125 16.65625 68.46875 16.65625 Z M 68.515625 28.773438 C 68.5 28.773438 68.484375 28.777344 68.46875 28.777344 C 65.351562 28.777344 62.824219 26.261719 62.824219 23.160156 C 62.824219 20.058594 65.351562 17.546875 68.46875 17.546875 C 68.484375 17.546875 68.5 17.546875 68.515625 17.546875 Z M 68.515625 28.773438 " clip-rule="nonzero"/></clipPath><clipPath id="bdd8b86b01"><path d="M 61.925781 22 L 75 22 L 75 23 L 61.925781 23 Z M 61.925781 22 " clip-rule="nonzero"/></clipPath><clipPath id="a21416867f"><path d="M 68.46875 16.65625 C 64.859375 16.65625 61.933594 19.570312 61.933594 23.160156 C 61.933594 26.75 64.859375 29.660156 68.46875 29.660156 C 72.074219 29.660156 75 26.75 75 23.160156 C 75 19.570312 72.078125 16.65625 68.46875 16.65625 Z M 68.515625 28.773438 C 68.5 28.773438 68.484375 28.777344 68.46875 28.777344 C 65.351562 28.777344 62.824219 26.261719 62.824219 23.160156 C 62.824219 20.058594 65.351562 17.546875 68.46875 17.546875 C 68.484375 17.546875 68.5 17.546875 68.515625 17.546875 Z M 68.515625 28.773438 " clip-rule="nonzero"/></clipPath><clipPath id="7e95f14332"><path d="M 61.925781 22 L 75 22 L 75 24 L 61.925781 24 Z M 61.925781 22 " clip-rule="nonzero"/></clipPath><clipPath id="09dc1b7db8"><path d="M 68.46875 16.65625 C 64.859375 16.65625 61.933594 19.570312 61.933594 23.160156 C 61.933594 26.75 64.859375 29.660156 68.46875 29.660156 C 72.074219 29.660156 75 26.75 75 23.160156 C 75 19.570312 72.078125 16.65625 68.46875 16.65625 Z M 68.515625 28.773438 C 68.5 28.773438 68.484375 28.777344 68.46875 28.777344 C 65.351562 28.777344 62.824219 26.261719 62.824219 23.160156 C 62.824219 20.058594 65.351562 17.546875 68.46875 17.546875 C 68.484375 17.546875 68.5 17.546875 68.515625 17.546875 Z M 68.515625 28.773438 " clip-rule="nonzero"/></clipPath><clipPath id="6b7c981cb0"><path d="M 61.925781 23 L 75 23 L 75 24 L 61.925781 24 Z M 61.925781 23 " clip-rule="nonzero"/></clipPath><clipPath id="e7ed9ed9c7"><path d="M 68.46875 16.65625 C 64.859375 16.65625 61.933594 19.570312 61.933594 23.160156 C 61.933594 26.75 64.859375 29.660156 68.46875 29.660156 C 72.074219 29.660156 75 26.75 75 23.160156 C 75 19.570312 72.078125 16.65625 68.46875 16.65625 Z M 68.515625 28.773438 C 68.5 28.773438 68.484375 28.777344 68.46875 28.777344 C 65.351562 28.777344 62.824219 26.261719 62.824219 23.160156 C 62.824219 20.058594 65.351562 17.546875 68.46875 17.546875 C 68.484375 17.546875 68.5 17.546875 68.515625 17.546875 Z M 68.515625 28.773438 " clip-rule="nonzero"/></clipPath><clipPath id="0495f21712"><path d="M 61.925781 23 L 75 23 L 75 25 L 61.925781 25 Z M 61.925781 23 " clip-rule="nonzero"/></clipPath><clipPath id="5e5bf8858e"><path d="M 68.46875 16.65625 C 64.859375 16.65625 61.933594 19.570312 61.933594 23.160156 C 61.933594 26.75 64.859375 29.660156 68.46875 29.660156 C 72.074219 29.660156 75 26.75 75 23.160156 C 75 19.570312 72.078125 16.65625 68.46875 16.65625 Z M 68.515625 28.773438 C 68.5 28.773438 68.484375 28.777344 68.46875 28.777344 C 65.351562 28.777344 62.824219 26.261719 62.824219 23.160156 C 62.824219 20.058594 65.351562 17.546875 68.46875 17.546875 C 68.484375 17.546875 68.5 17.546875 68.515625 17.546875 Z M 68.515625 28.773438 " clip-rule="nonzero"/></clipPath><clipPath id="21482972e7"><path d="M 61.925781 24 L 75 24 L 75 25 L 61.925781 25 Z M 61.925781 24 " clip-rule="nonzero"/></clipPath><clipPath id="b4b8cd5185"><path d="M 68.46875 16.65625 C 64.859375 16.65625 61.933594 19.570312 61.933594 23.160156 C 61.933594 26.75 64.859375 29.660156 68.46875 29.660156 C 72.074219 29.660156 75 26.75 75 23.160156 C 75 19.570312 72.078125 16.65625 68.46875 16.65625 Z M 68.515625 28.773438 C 68.5 28.773438 68.484375 28.777344 68.46875 28.777344 C 65.351562 28.777344 62.824219 26.261719 62.824219 23.160156 C 62.824219 20.058594 65.351562 17.546875 68.46875 17.546875 C 68.484375 17.546875 68.5 17.546875 68.515625 17.546875 Z M 68.515625 28.773438 " clip-rule="nonzero"/></clipPath><clipPath id="925816b444"><path d="M 61.925781 24 L 75 24 L 75 26 L 61.925781 26 Z M 61.925781 24 " clip-rule="nonzero"/></clipPath><clipPath id="1acf501cd4"><path d="M 68.46875 16.65625 C 64.859375 16.65625 61.933594 19.570312 61.933594 23.160156 C 61.933594 26.75 64.859375 29.660156 68.46875 29.660156 C 72.074219 29.660156 75 26.75 75 23.160156 C 75 19.570312 72.078125 16.65625 68.46875 16.65625 Z M 68.515625 28.773438 C 68.5 28.773438 68.484375 28.777344 68.46875 28.777344 C 65.351562 28.777344 62.824219 26.261719 62.824219 23.160156 C 62.824219 20.058594 65.351562 17.546875 68.46875 17.546875 C 68.484375 17.546875 68.5 17.546875 68.515625 17.546875 Z M 68.515625 28.773438 " clip-rule="nonzero"/></clipPath><clipPath id="7038a48c2c"><path d="M 61.925781 25 L 75 25 L 75 27 L 61.925781 27 Z M 61.925781 25 " clip-rule="nonzero"/></clipPath><clipPath id="e05be0c323"><path d="M 68.46875 16.65625 C 64.859375 16.65625 61.933594 19.570312 61.933594 23.160156 C 61.933594 26.75 64.859375 29.660156 68.46875 29.660156 C 72.074219 29.660156 75 26.75 75 23.160156 C 75 19.570312 72.078125 16.65625 68.46875 16.65625 Z M 68.515625 28.773438 C 68.5 28.773438 68.484375 28.777344 68.46875 28.777344 C 65.351562 28.777344 62.824219 26.261719 62.824219 23.160156 C 62.824219 20.058594 65.351562 17.546875 68.46875 17.546875 C 68.484375 17.546875 68.5 17.546875 68.515625 17.546875 Z M 68.515625 28.773438 " clip-rule="nonzero"/></clipPath><clipPath id="83315db0dd"><path d="M 61.925781 26 L 75 26 L 75 27 L 61.925781 27 Z M 61.925781 26 " clip-rule="nonzero"/></clipPath><clipPath id="9a0314dbb9"><path d="M 68.46875 16.65625 C 64.859375 16.65625 61.933594 19.570312 61.933594 23.160156 C 61.933594 26.75 64.859375 29.660156 68.46875 29.660156 C 72.074219 29.660156 75 26.75 75 23.160156 C 75 19.570312 72.078125 16.65625 68.46875 16.65625 Z M 68.515625 28.773438 C 68.5 28.773438 68.484375 28.777344 68.46875 28.777344 C 65.351562 28.777344 62.824219 26.261719 62.824219 23.160156 C 62.824219 20.058594 65.351562 17.546875 68.46875 17.546875 C 68.484375 17.546875 68.5 17.546875 68.515625 17.546875 Z M 68.515625 28.773438 " clip-rule="nonzero"/></clipPath><clipPath id="d20c19c6a3"><path d="M 61.925781 26 L 75 26 L 75 28 L 61.925781 28 Z M 61.925781 26 " clip-rule="nonzero"/></clipPath><clipPath id="0cc62da767"><path d="M 68.46875 16.65625 C 64.859375 16.65625 61.933594 19.570312 61.933594 23.160156 C 61.933594 26.75 64.859375 29.660156 68.46875 29.660156 C 72.074219 29.660156 75 26.75 75 23.160156 C 75 19.570312 72.078125 16.65625 68.46875 16.65625 Z M 68.515625 28.773438 C 68.5 28.773438 68.484375 28.777344 68.46875 28.777344 C 65.351562 28.777344 62.824219 26.261719 62.824219 23.160156 C 62.824219 20.058594 65.351562 17.546875 68.46875 17.546875 C 68.484375 17.546875 68.5 17.546875 68.515625 17.546875 Z M 68.515625 28.773438 " clip-rule="nonzero"/></clipPath><clipPath id="2329e5e213"><path d="M 61.925781 27 L 75 27 L 75 28 L 61.925781 28 Z M 61.925781 27 " clip-rule="nonzero"/></clipPath><clipPath id="2584f3c746"><path d="M 68.46875 16.65625 C 64.859375 16.65625 61.933594 19.570312 61.933594 23.160156 C 61.933594 26.75 64.859375 29.660156 68.46875 29.660156 C 72.074219 29.660156 75 26.75 75 23.160156 C 75 19.570312 72.078125 16.65625 68.46875 16.65625 Z M 68.515625 28.773438 C 68.5 28.773438 68.484375 28.777344 68.46875 28.777344 C 65.351562 28.777344 62.824219 26.261719 62.824219 23.160156 C 62.824219 20.058594 65.351562 17.546875 68.46875 17.546875 C 68.484375 17.546875 68.5 17.546875 68.515625 17.546875 Z M 68.515625 28.773438 " clip-rule="nonzero"/></clipPath><clipPath id="5fc60fb110"><path d="M 61.925781 27 L 75 27 L 75 29 L 61.925781 29 Z M 61.925781 27 " clip-rule="nonzero"/></clipPath><clipPath id="7fbf79dbc0"><path d="M 68.46875 16.65625 C 64.859375 16.65625 61.933594 19.570312 61.933594 23.160156 C 61.933594 26.75 64.859375 29.660156 68.46875 29.660156 C 72.074219 29.660156 75 26.75 75 23.160156 C 75 19.570312 72.078125 16.65625 68.46875 16.65625 Z M 68.515625 28.773438 C 68.5 28.773438 68.484375 28.777344 68.46875 28.777344 C 65.351562 28.777344 62.824219 26.261719 62.824219 23.160156 C 62.824219 20.058594 65.351562 17.546875 68.46875 17.546875 C 68.484375 17.546875 68.5 17.546875 68.515625 17.546875 Z M 68.515625 28.773438 " clip-rule="nonzero"/></clipPath><clipPath id="bdb234a023"><path d="M 61.925781 28 L 75 28 L 75 29 L 61.925781 29 Z M 61.925781 28 " clip-rule="nonzero"/></clipPath><clipPath id="a9d23ea697"><path d="M 68.46875 16.65625 C 64.859375 16.65625 61.933594 19.570312 61.933594 23.160156 C 61.933594 26.75 64.859375 29.660156 68.46875 29.660156 C 72.074219 29.660156 75 26.75 75 23.160156 C 75 19.570312 72.078125 16.65625 68.46875 16.65625 Z M 68.515625 28.773438 C 68.5 28.773438 68.484375 28.777344 68.46875 28.777344 C 65.351562 28.777344 62.824219 26.261719 62.824219 23.160156 C 62.824219 20.058594 65.351562 17.546875 68.46875 17.546875 C 68.484375 17.546875 68.5 17.546875 68.515625 17.546875 Z M 68.515625 28.773438 " clip-rule="nonzero"/></clipPath><clipPath id="eb4a34e0ba"><path d="M 61.925781 28 L 75 28 L 75 29.820312 L 61.925781 29.820312 Z M 61.925781 28 " clip-rule="nonzero"/></clipPath><clipPath id="4e72580fab"><path d="M 68.46875 16.65625 C 64.859375 16.65625 61.933594 19.570312 61.933594 23.160156 C 61.933594 26.75 64.859375 29.660156 68.46875 29.660156 C 72.074219 29.660156 75 26.75 75 23.160156 C 75 19.570312 72.078125 16.65625 68.46875 16.65625 Z M 68.515625 28.773438 C 68.5 28.773438 68.484375 28.777344 68.46875 28.777344 C 65.351562 28.777344 62.824219 26.261719 62.824219 23.160156 C 62.824219 20.058594 65.351562 17.546875 68.46875 17.546875 C 68.484375 17.546875 68.5 17.546875 68.515625 17.546875 Z M 68.515625 28.773438 " clip-rule="nonzero"/></clipPath><clipPath id="345a7b153d"><path d="M 61.925781 29 L 75 29 L 75 29.820312 L 61.925781 29.820312 Z M 61.925781 29 " clip-rule="nonzero"/></clipPath><clipPath id="8b3402220b"><path d="M 68.46875 16.65625 C 64.859375 16.65625 61.933594 19.570312 61.933594 23.160156 C 61.933594 26.75 64.859375 29.660156 68.46875 29.660156 C 72.074219 29.660156 75 26.75 75 23.160156 C 75 19.570312 72.078125 16.65625 68.46875 16.65625 Z M 68.515625 28.773438 C 68.5 28.773438 68.484375 28.777344 68.46875 28.777344 C 65.351562 28.777344 62.824219 26.261719 62.824219 23.160156 C 62.824219 20.058594 65.351562 17.546875 68.46875 17.546875 C 68.484375 17.546875 68.5 17.546875 68.515625 17.546875 Z M 68.515625 28.773438 " clip-rule="nonzero"/></clipPath><clipPath id="c81da400e8"><rect x="0" width="92" y="0" height="47"/></clipPath></defs><g mask="url(#b9042162e7)"><g transform="matrix(1, 0, 0, 1, 674, 354)"><g clip-path="url(#c81da400e8)"><g clip-path="url(#735c9784be)"><g clip-path="url(#84fa81b012)"><path fill="url(#2c8fbc0748)" d="M 2.277344 5.203125 L 2.277344 41.023438 L 86.320312 41.023438 L 86.320312 5.203125 Z M 2.277344 5.203125 " fill-rule="nonzero"/></g></g><g clip-path="url(#dea7e1f6bf)"><path fill="#ffffff" d="M 68.324219 42.195312 L 20.273438 42.195312 C 9.699219 42.195312 1.097656 33.636719 1.097656 23.113281 C 1.097656 12.589844 9.699219 4.027344 20.273438 4.027344 L 68.324219 4.027344 C 78.898438 4.027344 87.5 12.589844 87.5 23.113281 C 87.5 33.636719 78.898438 42.195312 68.324219 42.195312 Z M 20.273438 5.203125 C 10.351562 5.203125 2.277344 13.238281 2.277344 23.113281 C 2.277344 32.988281 10.351562 41.023438 20.273438 41.023438 L 68.324219 41.023438 C 78.246094 41.023438 86.320312 32.988281 86.320312 23.113281 C 86.320312 13.238281 78.246094 5.203125 68.324219 5.203125 Z M 20.273438 5.203125 " fill-opacity="1" fill-rule="nonzero"/></g><path fill="#ffffff" d="M 79.742188 11.941406 C 80.109375 12.308594 80.460938 12.691406 80.792969 13.09375 C 81.125 13.496094 81.433594 13.914062 81.722656 14.34375 C 82.015625 14.777344 82.28125 15.222656 82.527344 15.679688 C 82.773438 16.140625 82.996094 16.609375 83.199219 17.089844 C 83.398438 17.570312 83.574219 18.058594 83.726562 18.554688 C 83.875 19.050781 84.003906 19.554688 84.105469 20.066406 C 84.207031 20.574219 84.285156 21.089844 84.335938 21.605469 C 84.386719 22.121094 84.410156 22.640625 84.410156 23.160156 C 84.410156 23.679688 84.386719 24.199219 84.335938 24.714844 C 84.285156 25.234375 84.207031 25.746094 84.105469 26.257812 C 84.003906 26.765625 83.875 27.269531 83.726562 27.765625 C 83.574219 28.265625 83.398438 28.753906 83.199219 29.234375 C 82.996094 29.714844 82.773438 30.183594 82.527344 30.640625 C 82.28125 31.097656 82.015625 31.542969 81.722656 31.976562 C 81.433594 32.410156 81.125 32.824219 80.792969 33.226562 C 80.460938 33.628906 80.109375 34.015625 79.742188 34.382812 C 79.371094 34.75 78.984375 35.097656 78.582031 35.425781 C 78.179688 35.757812 77.757812 36.066406 77.324219 36.355469 C 76.890625 36.644531 76.445312 36.910156 75.984375 37.15625 C 75.523438 37.402344 75.050781 37.621094 74.570312 37.820312 C 74.085938 38.019531 73.59375 38.195312 73.09375 38.347656 C 72.59375 38.496094 72.089844 38.621094 71.578125 38.722656 C 71.066406 38.824219 70.550781 38.902344 70.03125 38.953125 C 69.511719 39.003906 68.988281 39.03125 68.46875 39.03125 C 67.945312 39.03125 67.421875 39.003906 66.902344 38.953125 C 66.382812 38.902344 65.867188 38.824219 65.355469 38.722656 C 64.84375 38.625 64.339844 38.496094 63.839844 38.347656 C 63.339844 38.195312 62.847656 38.019531 62.363281 37.820312 C 61.882812 37.621094 61.410156 37.402344 60.949219 37.15625 C 60.488281 36.910156 60.042969 36.644531 59.609375 36.355469 C 59.175781 36.066406 58.753906 35.757812 58.351562 35.425781 C 57.949219 35.097656 57.5625 34.75 57.191406 34.382812 C 56.824219 34.015625 56.472656 33.628906 56.140625 33.226562 C 55.808594 32.828125 55.5 32.410156 55.210938 31.976562 C 54.917969 31.546875 54.652344 31.101562 54.40625 30.640625 C 54.160156 30.183594 53.933594 29.714844 53.734375 29.234375 C 53.535156 28.753906 53.359375 28.265625 53.207031 27.769531 C 53.058594 27.269531 52.929688 26.765625 52.828125 26.257812 C 52.726562 25.746094 52.648438 25.234375 52.597656 24.71875 C 52.546875 24.199219 52.523438 23.679688 52.523438 23.160156 C 52.523438 22.640625 52.546875 22.125 52.597656 21.605469 C 52.648438 21.089844 52.726562 20.574219 52.828125 20.066406 C 52.929688 19.554688 53.058594 19.050781 53.207031 18.554688 C 53.359375 18.058594 53.535156 17.570312 53.734375 17.089844 C 53.933594 16.609375 54.160156 16.140625 54.40625 15.679688 C 54.652344 15.222656 54.917969 14.777344 55.207031 14.34375 C 55.5 13.914062 55.808594 13.496094 56.140625 13.09375 C 56.472656 12.691406 56.824219 12.308594 57.191406 11.941406 C 57.5625 11.574219 57.949219 11.226562 58.351562 10.894531 C 58.753906 10.566406 59.171875 10.257812 59.609375 9.96875 C 60.042969 9.679688 60.488281 9.410156 60.949219 9.167969 C 61.410156 8.921875 61.882812 8.699219 62.363281 8.5 C 62.847656 8.300781 63.339844 8.128906 63.835938 7.976562 C 64.335938 7.824219 64.84375 7.699219 65.355469 7.597656 C 65.867188 7.496094 66.382812 7.421875 66.902344 7.371094 C 67.421875 7.320312 67.945312 7.292969 68.464844 7.292969 C 68.988281 7.292969 69.507812 7.320312 70.027344 7.371094 C 70.550781 7.421875 71.066406 7.496094 71.578125 7.597656 C 72.089844 7.699219 72.59375 7.824219 73.09375 7.976562 C 73.59375 8.128906 74.085938 8.300781 74.566406 8.5 C 75.050781 8.699219 75.523438 8.921875 75.984375 9.167969 C 76.441406 9.410156 76.890625 9.679688 77.324219 9.96875 C 77.757812 10.253906 78.179688 10.566406 78.582031 10.894531 C 78.984375 11.222656 79.371094 11.574219 79.742188 11.941406 Z M 79.742188 11.941406 " fill-opacity="1" fill-rule="nonzero"/><g clip-path="url(#ba2c76001a)"><g clip-path="url(#c1fb3f400b)"><path fill="#272727" d="M 68.140625 13.195312 L 68.796875 13.195312 L 68.796875 13.574219 L 68.140625 13.574219 Z M 68.140625 13.195312 " fill-opacity="1" fill-rule="nonzero"/></g></g><g clip-path="url(#b09b7996d1)"><g clip-path="url(#e6acf351e7)"><path fill="#262626" d="M 68.140625 13.574219 L 68.796875 13.574219 L 68.796875 14.140625 L 68.140625 14.140625 Z M 68.140625 13.574219 " fill-opacity="1" fill-rule="nonzero"/></g></g><g clip-path="url(#485f76b9ab)"><g clip-path="url(#f1754842a8)"><path fill="#252525" d="M 68.140625 14.140625 L 68.796875 14.140625 L 68.796875 14.703125 L 68.140625 14.703125 Z M 68.140625 14.140625 " fill-opacity="1" fill-rule="nonzero"/></g></g><g clip-path="url(#7c69e491c7)"><g clip-path="url(#945743f9f4)"><path fill="#242424" d="M 68.140625 14.703125 L 68.796875 14.703125 L 68.796875 15.269531 L 68.140625 15.269531 Z M 68.140625 14.703125 " fill-opacity="1" fill-rule="nonzero"/></g></g><g clip-path="url(#9ea0370abf)"><g clip-path="url(#5f8cb51e2c)"><path fill="#232323" d="M 68.140625 15.269531 L 68.796875 15.269531 L 68.796875 15.835938 L 68.140625 15.835938 Z M 68.140625 15.269531 " fill-opacity="1" fill-rule="nonzero"/><path fill="#222222" d="M 68.140625 15.835938 L 68.796875 15.835938 L 68.796875 16.003906 L 68.140625 16.003906 Z M 68.140625 15.835938 " fill-opacity="1" fill-rule="nonzero"/></g></g><g clip-path="url(#eb3676ca14)"><g clip-path="url(#bc2bd0bbe2)"><path fill="#222222" d="M 61.257812 15.984375 L 63.507812 15.984375 L 63.507812 16.402344 L 61.257812 16.402344 Z M 61.257812 15.984375 " fill-opacity="1" fill-rule="nonzero"/><path fill="#212121" d="M 61.257812 16.402344 L 63.507812 16.402344 L 63.507812 16.96875 L 61.257812 16.96875 Z M 61.257812 16.402344 " fill-opacity="1" fill-rule="nonzero"/></g></g><g clip-path="url(#81253fef46)"><g clip-path="url(#3a263fbad8)"><path fill="#202020" d="M 61.257812 16.96875 L 63.507812 16.96875 L 63.507812 17.535156 L 61.257812 17.535156 Z M 61.257812 16.96875 " fill-opacity="1" fill-rule="nonzero"/></g></g><g clip-path="url(#e78b7e8fcd)"><g clip-path="url(#3f2d88ecd9)"><path fill="#1f1f1f" d="M 61.257812 17.535156 L 63.507812 17.535156 L 63.507812 18.101562 L 61.257812 18.101562 Z M 61.257812 17.535156 " fill-opacity="1" fill-rule="nonzero"/></g></g><g clip-path="url(#523ff68fe4)"><g clip-path="url(#c0618b31a0)"><path fill="#1e1e1e" d="M 61.257812 18.101562 L 63.507812 18.101562 L 63.507812 18.226562 L 61.257812 18.226562 Z M 61.257812 18.101562 " fill-opacity="1" fill-rule="nonzero"/></g></g><g clip-path="url(#63218e88d9)"><g clip-path="url(#c5c326b67f)"><path fill="#161616" d="M 58.453125 22.832031 L 61.273438 22.832031 L 61.273438 23.191406 L 58.453125 23.191406 Z M 58.453125 22.832031 " fill-opacity="1" fill-rule="nonzero"/></g></g><g clip-path="url(#35595245ac)"><g clip-path="url(#95fb0a1ca3)"><path fill="#151515" d="M 58.453125 23.191406 L 61.273438 23.191406 L 61.273438 23.488281 L 58.453125 23.488281 Z M 58.453125 23.191406 " fill-opacity="1" fill-rule="nonzero"/></g></g><g clip-path="url(#c1aaa0fd14)"><g clip-path="url(#ce344b77a5)"><path fill="#0c0c0c" d="M 61.257812 28.09375 L 63.507812 28.09375 L 63.507812 28.285156 L 61.257812 28.285156 Z M 61.257812 28.09375 " fill-opacity="1" fill-rule="nonzero"/><path fill="#0b0b0b" d="M 61.257812 28.285156 L 63.507812 28.285156 L 63.507812 28.851562 L 61.257812 28.851562 Z M 61.257812 28.285156 " fill-opacity="1" fill-rule="nonzero"/></g></g><g clip-path="url(#c17299115c)"><g clip-path="url(#4bd3e1bdd8)"><path fill="#0a0a0a" d="M 61.257812 28.851562 L 63.507812 28.851562 L 63.507812 29.414062 L 61.257812 29.414062 Z M 61.257812 28.851562 " fill-opacity="1" fill-rule="nonzero"/></g></g><g clip-path="url(#f3bf38c28d)"><g clip-path="url(#a4887121d0)"><path fill="#090909" d="M 61.257812 29.414062 L 63.507812 29.414062 L 63.507812 29.980469 L 61.257812 29.980469 Z M 61.257812 29.414062 " fill-opacity="1" fill-rule="nonzero"/></g></g><g clip-path="url(#132b6f1996)"><g clip-path="url(#d1327e46b5)"><path fill="#080808" d="M 61.257812 29.980469 L 63.507812 29.980469 L 63.507812 30.335938 L 61.257812 30.335938 Z M 61.257812 29.980469 " fill-opacity="1" fill-rule="nonzero"/></g></g><g clip-path="url(#8518febaa5)"><g clip-path="url(#92d79483f4)"><path fill="#080808" d="M 68.140625 30.320312 L 68.796875 30.320312 L 68.796875 30.546875 L 68.140625 30.546875 Z M 68.140625 30.320312 " fill-opacity="1" fill-rule="nonzero"/></g></g><g clip-path="url(#a97d505a34)"><g clip-path="url(#1c76029eb5)"><path fill="#070707" d="M 68.140625 30.546875 L 68.796875 30.546875 L 68.796875 31.113281 L 68.140625 31.113281 Z M 68.140625 30.546875 " fill-opacity="1" fill-rule="nonzero"/></g></g><g clip-path="url(#992660814e)"><g clip-path="url(#22f5bc1c75)"><path fill="#060606" d="M 68.140625 31.113281 L 68.796875 31.113281 L 68.796875 31.679688 L 68.140625 31.679688 Z M 68.140625 31.113281 " fill-opacity="1" fill-rule="nonzero"/></g></g><g clip-path="url(#cd41ceacdc)"><g clip-path="url(#8b9c70a2c1)"><path fill="#050505" d="M 68.140625 31.679688 L 68.796875 31.679688 L 68.796875 32.246094 L 68.140625 32.246094 Z M 68.140625 31.679688 " fill-opacity="1" fill-rule="nonzero"/></g></g><g clip-path="url(#cf25bd7ea9)"><g clip-path="url(#d110b96f24)"><path fill="#040404" d="M 68.140625 32.246094 L 68.796875 32.246094 L 68.796875 32.8125 L 68.140625 32.8125 Z M 68.140625 32.246094 " fill-opacity="1" fill-rule="nonzero"/></g></g><g clip-path="url(#3cfa683709)"><g clip-path="url(#becd2d35ba)"><path fill="#030303" d="M 68.140625 32.808594 L 68.796875 32.808594 L 68.796875 33.128906 L 68.140625 33.128906 Z M 68.140625 32.808594 " fill-opacity="1" fill-rule="nonzero"/></g></g><g clip-path="url(#060c230f8a)"><g clip-path="url(#656fd21e7a)"><path fill="#0c0c0c" d="M 73.425781 28.09375 L 75.675781 28.09375 L 75.675781 28.285156 L 73.425781 28.285156 Z M 73.425781 28.09375 " fill-opacity="1" fill-rule="nonzero"/><path fill="#0b0b0b" d="M 73.425781 28.285156 L 75.675781 28.285156 L 75.675781 28.851562 L 73.425781 28.851562 Z M 73.425781 28.285156 " fill-opacity="1" fill-rule="nonzero"/></g></g><g clip-path="url(#27dfaf4683)"><g clip-path="url(#4965405e93)"><path fill="#0a0a0a" d="M 73.425781 28.851562 L 75.675781 28.851562 L 75.675781 29.414062 L 73.425781 29.414062 Z M 73.425781 28.851562 " fill-opacity="1" fill-rule="nonzero"/></g></g><g clip-path="url(#1a28f528f7)"><g clip-path="url(#9aae182cf8)"><path fill="#090909" d="M 73.425781 29.414062 L 75.675781 29.414062 L 75.675781 29.980469 L 73.425781 29.980469 Z M 73.425781 29.414062 " fill-opacity="1" fill-rule="nonzero"/></g></g><g clip-path="url(#c02b45b3bf)"><g clip-path="url(#e916ffaf50)"><path fill="#080808" d="M 73.425781 29.980469 L 75.675781 29.980469 L 75.675781 30.335938 L 73.425781 30.335938 Z M 73.425781 29.980469 " fill-opacity="1" fill-rule="nonzero"/></g></g><g clip-path="url(#87089f6ded)"><g clip-path="url(#55b090a43b)"><path fill="#161616" d="M 75.660156 22.832031 L 78.480469 22.832031 L 78.480469 23.191406 L 75.660156 23.191406 Z M 75.660156 22.832031 " fill-opacity="1" fill-rule="nonzero"/></g></g><g clip-path="url(#f9e6e0b87f)"><g clip-path="url(#6741fb3eef)"><path fill="#151515" d="M 75.660156 23.191406 L 78.480469 23.191406 L 78.480469 23.488281 L 75.660156 23.488281 Z M 75.660156 23.191406 " fill-opacity="1" fill-rule="nonzero"/></g></g><g clip-path="url(#48927e7260)"><g clip-path="url(#4b67c8d546)"><path fill="#222222" d="M 73.425781 15.984375 L 75.675781 15.984375 L 75.675781 16.402344 L 73.425781 16.402344 Z M 73.425781 15.984375 " fill-opacity="1" fill-rule="nonzero"/><path fill="#212121" d="M 73.425781 16.402344 L 75.675781 16.402344 L 75.675781 16.96875 L 73.425781 16.96875 Z M 73.425781 16.402344 " fill-opacity="1" fill-rule="nonzero"/></g></g><g clip-path="url(#9e0d62a53a)"><g clip-path="url(#d09a460b74)"><path fill="#202020" d="M 73.425781 16.96875 L 75.675781 16.96875 L 75.675781 17.535156 L 73.425781 17.535156 Z M 73.425781 16.96875 " fill-opacity="1" fill-rule="nonzero"/></g></g><g clip-path="url(#0be1c9f02e)"><g clip-path="url(#03967f147b)"><path fill="#1f1f1f" d="M 73.425781 17.535156 L 75.675781 17.535156 L 75.675781 18.101562 L 73.425781 18.101562 Z M 73.425781 17.535156 " fill-opacity="1" fill-rule="nonzero"/></g></g><g clip-path="url(#54e981daec)"><g clip-path="url(#0997aa7ec5)"><path fill="#1e1e1e" d="M 73.425781 18.101562 L 75.675781 18.101562 L 75.675781 18.226562 L 73.425781 18.226562 Z M 73.425781 18.101562 " fill-opacity="1" fill-rule="nonzero"/></g></g><g clip-path="url(#466de5e97e)"><g clip-path="url(#81bed1e343)"><path fill="#1f1f1f" d="M 62.828125 17.546875 L 68.515625 17.546875 L 68.515625 18.101562 L 62.828125 18.101562 Z M 62.828125 17.546875 " fill-opacity="1" fill-rule="nonzero"/></g></g><g clip-path="url(#cd2520bbce)"><g clip-path="url(#7ad66532a7)"><path fill="#1e1e1e" d="M 62.828125 18.101562 L 68.515625 18.101562 L 68.515625 18.664062 L 62.828125 18.664062 Z M 62.828125 18.101562 " fill-opacity="1" fill-rule="nonzero"/></g></g><g clip-path="url(#c1c28b87cc)"><g clip-path="url(#6a49c74898)"><path fill="#1d1d1d" d="M 62.828125 18.664062 L 68.515625 18.664062 L 68.515625 19.230469 L 62.828125 19.230469 Z M 62.828125 18.664062 " fill-opacity="1" fill-rule="nonzero"/></g></g><g clip-path="url(#4ee5f8e95e)"><g clip-path="url(#631376a853)"><path fill="#1c1c1c" d="M 62.828125 19.230469 L 68.515625 19.230469 L 68.515625 19.796875 L 62.828125 19.796875 Z M 62.828125 19.230469 " fill-opacity="1" fill-rule="nonzero"/></g></g><g clip-path="url(#8d545afa22)"><g clip-path="url(#84211a8f9f)"><path fill="#1b1b1b" d="M 62.828125 19.796875 L 68.515625 19.796875 L 68.515625 20.363281 L 62.828125 20.363281 Z M 62.828125 19.796875 " fill-opacity="1" fill-rule="nonzero"/></g></g><g clip-path="url(#2a721981d3)"><g clip-path="url(#c9646356b4)"><path fill="#1a1a1a" d="M 62.828125 20.363281 L 68.515625 20.363281 L 68.515625 20.929688 L 62.828125 20.929688 Z M 62.828125 20.363281 " fill-opacity="1" fill-rule="nonzero"/></g></g><g clip-path="url(#3bfafffadc)"><g clip-path="url(#a74ffd9cb9)"><path fill="#191919" d="M 62.828125 20.929688 L 68.515625 20.929688 L 68.515625 21.496094 L 62.828125 21.496094 Z M 62.828125 20.929688 " fill-opacity="1" fill-rule="nonzero"/></g></g><g clip-path="url(#fa5b3b4ec3)"><g clip-path="url(#29899117d4)"><path fill="#181818" d="M 62.828125 21.496094 L 68.515625 21.496094 L 68.515625 22.058594 L 62.828125 22.058594 Z M 62.828125 21.496094 " fill-opacity="1" fill-rule="nonzero"/></g></g><g clip-path="url(#48f910ca76)"><g clip-path="url(#ec9f215494)"><path fill="#171717" d="M 62.828125 22.058594 L 68.515625 22.058594 L 68.515625 22.625 L 62.828125 22.625 Z M 62.828125 22.058594 " fill-opacity="1" fill-rule="nonzero"/></g></g><g clip-path="url(#484af10db8)"><g clip-path="url(#539b200b40)"><path fill="#161616" d="M 62.828125 22.625 L 68.515625 22.625 L 68.515625 23.191406 L 62.828125 23.191406 Z M 62.828125 22.625 " fill-opacity="1" fill-rule="nonzero"/></g></g><g clip-path="url(#c892be4bbd)"><g clip-path="url(#fdfff62d48)"><path fill="#151515" d="M 62.828125 23.191406 L 68.515625 23.191406 L 68.515625 23.757812 L 62.828125 23.757812 Z M 62.828125 23.191406 " fill-opacity="1" fill-rule="nonzero"/></g></g><g clip-path="url(#55eb1546c2)"><g clip-path="url(#096509b326)"><path fill="#131313" d="M 62.828125 23.757812 L 68.515625 23.757812 L 68.515625 24.324219 L 62.828125 24.324219 Z M 62.828125 23.757812 " fill-opacity="1" fill-rule="nonzero"/></g></g><g clip-path="url(#49367b00da)"><g clip-path="url(#f90d5b6e3d)"><path fill="#121212" d="M 62.828125 24.324219 L 68.515625 24.324219 L 68.515625 24.890625 L 62.828125 24.890625 Z M 62.828125 24.324219 " fill-opacity="1" fill-rule="nonzero"/></g></g><g clip-path="url(#3aa32e809a)"><g clip-path="url(#b74e8558f0)"><path fill="#111111" d="M 62.828125 24.890625 L 68.515625 24.890625 L 68.515625 25.457031 L 62.828125 25.457031 Z M 62.828125 24.890625 " fill-opacity="1" fill-rule="nonzero"/></g></g><g clip-path="url(#d0ead955f5)"><g clip-path="url(#4b38ad0554)"><path fill="#101010" d="M 62.828125 25.457031 L 68.515625 25.457031 L 68.515625 26.019531 L 62.828125 26.019531 Z M 62.828125 25.457031 " fill-opacity="1" fill-rule="nonzero"/></g></g><g clip-path="url(#6c01098b6f)"><g clip-path="url(#7da4baee9d)"><path fill="#0f0f0f" d="M 62.828125 26.019531 L 68.515625 26.019531 L 68.515625 26.585938 L 62.828125 26.585938 Z M 62.828125 26.019531 " fill-opacity="1" fill-rule="nonzero"/></g></g><g clip-path="url(#90588105a6)"><g clip-path="url(#5e056653e5)"><path fill="#0e0e0e" d="M 62.828125 26.585938 L 68.515625 26.585938 L 68.515625 27.152344 L 62.828125 27.152344 Z M 62.828125 26.585938 " fill-opacity="1" fill-rule="nonzero"/></g></g><g clip-path="url(#ec9b47105e)"><g clip-path="url(#9b05df24f0)"><path fill="#0d0d0d" d="M 62.828125 27.152344 L 68.515625 27.152344 L 68.515625 27.71875 L 62.828125 27.71875 Z M 62.828125 27.152344 " fill-opacity="1" fill-rule="nonzero"/></g></g><g clip-path="url(#7f71833af3)"><g clip-path="url(#2da726c714)"><path fill="#0c0c0c" d="M 62.828125 27.71875 L 68.515625 27.71875 L 68.515625 28.285156 L 62.828125 28.285156 Z M 62.828125 27.71875 " fill-opacity="1" fill-rule="nonzero"/></g></g><g clip-path="url(#5a4c714834)"><g clip-path="url(#664fb1f05e)"><path fill="#0b0b0b" d="M 62.828125 28.285156 L 68.515625 28.285156 L 68.515625 28.777344 L 62.828125 28.777344 Z M 62.828125 28.285156 " fill-opacity="1" fill-rule="nonzero"/></g></g><g clip-path="url(#291b0b81e3)"><g clip-path="url(#1cc70ed253)"><path fill="#212121" d="M 61.933594 16.65625 L 75.003906 16.65625 L 75.003906 16.964844 L 61.933594 16.964844 Z M 61.933594 16.65625 " fill-opacity="1" fill-rule="nonzero"/></g></g><g clip-path="url(#e7bbd421ef)"><g clip-path="url(#91506a0eac)"><path fill="#202020" d="M 61.933594 16.96875 L 75.003906 16.96875 L 75.003906 17.535156 L 61.933594 17.535156 Z M 61.933594 16.96875 " fill-opacity="1" fill-rule="nonzero"/></g></g><g clip-path="url(#90cc6b40be)"><g clip-path="url(#6f723a3325)"><path fill="#1f1f1f" d="M 61.933594 17.535156 L 75.003906 17.535156 L 75.003906 18.101562 L 61.933594 18.101562 Z M 61.933594 17.535156 " fill-opacity="1" fill-rule="nonzero"/></g></g><g clip-path="url(#997b9b3e81)"><g clip-path="url(#601b25dbbd)"><path fill="#1e1e1e" d="M 61.933594 18.101562 L 75.003906 18.101562 L 75.003906 18.664062 L 61.933594 18.664062 Z M 61.933594 18.101562 " fill-opacity="1" fill-rule="nonzero"/></g></g><g clip-path="url(#3554f74e32)"><g clip-path="url(#1938de92e1)"><path fill="#1d1d1d" d="M 61.933594 18.664062 L 75.003906 18.664062 L 75.003906 19.230469 L 61.933594 19.230469 Z M 61.933594 18.664062 " fill-opacity="1" fill-rule="nonzero"/></g></g><g clip-path="url(#1956aa7f65)"><g clip-path="url(#d6ce0f9bb9)"><path fill="#1c1c1c" d="M 61.933594 19.230469 L 75.003906 19.230469 L 75.003906 19.796875 L 61.933594 19.796875 Z M 61.933594 19.230469 " fill-opacity="1" fill-rule="nonzero"/></g></g><g clip-path="url(#adfa87ed51)"><g clip-path="url(#4b6470b663)"><path fill="#1b1b1b" d="M 61.933594 19.796875 L 75.003906 19.796875 L 75.003906 20.363281 L 61.933594 20.363281 Z M 61.933594 19.796875 " fill-opacity="1" fill-rule="nonzero"/></g></g><g clip-path="url(#fe3e71bab3)"><g clip-path="url(#d89577cfe2)"><path fill="#1a1a1a" d="M 61.933594 20.363281 L 75.003906 20.363281 L 75.003906 20.929688 L 61.933594 20.929688 Z M 61.933594 20.363281 " fill-opacity="1" fill-rule="nonzero"/></g></g><g clip-path="url(#1a6902952b)"><g clip-path="url(#472372bbf4)"><path fill="#191919" d="M 61.933594 20.929688 L 75.003906 20.929688 L 75.003906 21.496094 L 61.933594 21.496094 Z M 61.933594 20.929688 " fill-opacity="1" fill-rule="nonzero"/></g></g><g clip-path="url(#bc3d12290f)"><g clip-path="url(#a700e8ab7d)"><path fill="#181818" d="M 61.933594 21.496094 L 75.003906 21.496094 L 75.003906 22.058594 L 61.933594 22.058594 Z M 61.933594 21.496094 " fill-opacity="1" fill-rule="nonzero"/></g></g><g clip-path="url(#bdd8b86b01)"><g clip-path="url(#a21416867f)"><path fill="#171717" d="M 61.933594 22.058594 L 75.003906 22.058594 L 75.003906 22.625 L 61.933594 22.625 Z M 61.933594 22.058594 " fill-opacity="1" fill-rule="nonzero"/></g></g><g clip-path="url(#7e95f14332)"><g clip-path="url(#09dc1b7db8)"><path fill="#161616" d="M 61.933594 22.625 L 75.003906 22.625 L 75.003906 23.191406 L 61.933594 23.191406 Z M 61.933594 22.625 " fill-opacity="1" fill-rule="nonzero"/></g></g><g clip-path="url(#6b7c981cb0)"><g clip-path="url(#e7ed9ed9c7)"><path fill="#151515" d="M 61.933594 23.191406 L 75.003906 23.191406 L 75.003906 23.757812 L 61.933594 23.757812 Z M 61.933594 23.191406 " fill-opacity="1" fill-rule="nonzero"/></g></g><g clip-path="url(#0495f21712)"><g clip-path="url(#5e5bf8858e)"><path fill="#131313" d="M 61.933594 23.757812 L 75.003906 23.757812 L 75.003906 24.324219 L 61.933594 24.324219 Z M 61.933594 23.757812 " fill-opacity="1" fill-rule="nonzero"/></g></g><g clip-path="url(#21482972e7)"><g clip-path="url(#b4b8cd5185)"><path fill="#121212" d="M 61.933594 24.324219 L 75.003906 24.324219 L 75.003906 24.890625 L 61.933594 24.890625 Z M 61.933594 24.324219 " fill-opacity="1" fill-rule="nonzero"/></g></g><g clip-path="url(#925816b444)"><g clip-path="url(#1acf501cd4)"><path fill="#111111" d="M 61.933594 24.890625 L 75.003906 24.890625 L 75.003906 25.457031 L 61.933594 25.457031 Z M 61.933594 24.890625 " fill-opacity="1" fill-rule="nonzero"/></g></g><g clip-path="url(#7038a48c2c)"><g clip-path="url(#e05be0c323)"><path fill="#101010" d="M 61.933594 25.457031 L 75.003906 25.457031 L 75.003906 26.019531 L 61.933594 26.019531 Z M 61.933594 25.457031 " fill-opacity="1" fill-rule="nonzero"/></g></g><g clip-path="url(#83315db0dd)"><g clip-path="url(#9a0314dbb9)"><path fill="#0f0f0f" d="M 61.933594 26.019531 L 75.003906 26.019531 L 75.003906 26.585938 L 61.933594 26.585938 Z M 61.933594 26.019531 " fill-opacity="1" fill-rule="nonzero"/></g></g><g clip-path="url(#d20c19c6a3)"><g clip-path="url(#0cc62da767)"><path fill="#0e0e0e" d="M 61.933594 26.585938 L 75.003906 26.585938 L 75.003906 27.152344 L 61.933594 27.152344 Z M 61.933594 26.585938 " fill-opacity="1" fill-rule="nonzero"/></g></g><g clip-path="url(#2329e5e213)"><g clip-path="url(#2584f3c746)"><path fill="#0d0d0d" d="M 61.933594 27.152344 L 75.003906 27.152344 L 75.003906 27.71875 L 61.933594 27.71875 Z M 61.933594 27.152344 " fill-opacity="1" fill-rule="nonzero"/></g></g><g clip-path="url(#5fc60fb110)"><g clip-path="url(#7fbf79dbc0)"><path fill="#0c0c0c" d="M 61.933594 27.71875 L 75.003906 27.71875 L 75.003906 28.285156 L 61.933594 28.285156 Z M 61.933594 27.71875 " fill-opacity="1" fill-rule="nonzero"/></g></g><g clip-path="url(#bdb234a023)"><g clip-path="url(#a9d23ea697)"><path fill="#0b0b0b" d="M 61.933594 28.285156 L 75.003906 28.285156 L 75.003906 28.851562 L 61.933594 28.851562 Z M 61.933594 28.285156 " fill-opacity="1" fill-rule="nonzero"/></g></g><g clip-path="url(#eb4a34e0ba)"><g clip-path="url(#4e72580fab)"><path fill="#0a0a0a" d="M 61.933594 28.851562 L 75.003906 28.851562 L 75.003906 29.414062 L 61.933594 29.414062 Z M 61.933594 28.851562 " fill-opacity="1" fill-rule="nonzero"/></g></g><g clip-path="url(#345a7b153d)"><g clip-path="url(#8b3402220b)"><path fill="#090909" d="M 61.933594 29.414062 L 75.003906 29.414062 L 75.003906 29.664062 L 61.933594 29.664062 Z M 61.933594 29.414062 " fill-opacity="1" fill-rule="nonzero"/></g></g><path fill="#ffffff" d="M 15.46875 12.90625 L 18.457031 12.90625 C 20.925781 12.90625 22.640625 14.625 22.640625 17.3125 C 22.640625 19.992188 20.964844 21.875 18.441406 21.875 L 15.46875 21.875 Z M 16.164062 21.234375 L 18.339844 21.234375 C 20.722656 21.234375 21.890625 19.570312 21.890625 17.351562 C 21.890625 15.378906 20.835938 13.550781 18.339844 13.550781 L 16.164062 13.550781 Z M 16.164062 21.234375 " fill-opacity="1" fill-rule="nonzero"/><path fill="#ffffff" d="M 25.457031 18.773438 L 24.308594 21.871094 L 23.601562 21.871094 L 26.910156 12.90625 L 27.734375 12.90625 L 31.183594 21.871094 L 30.425781 21.871094 L 29.253906 18.773438 Z M 29.023438 18.132812 C 28.019531 15.46875 27.503906 14.1875 27.324219 13.585938 L 27.3125 13.585938 C 27.09375 14.265625 26.511719 15.855469 25.703125 18.132812 Z M 29.023438 18.132812 " fill-opacity="1" fill-rule="nonzero"/><path fill="#ffffff" d="M 33.488281 17.683594 L 33.488281 21.875 L 32.777344 21.875 L 32.777344 12.90625 L 36.011719 12.90625 C 37.789062 12.90625 38.726562 13.855469 38.726562 15.265625 C 38.726562 16.402344 38.042969 17.148438 37.039062 17.367188 C 37.96875 17.582031 38.585938 18.1875 38.585938 19.710938 L 38.585938 20.054688 C 38.585938 20.683594 38.535156 21.527344 38.703125 21.875 L 37.992188 21.875 C 37.824219 21.492188 37.863281 20.773438 37.863281 20.003906 L 37.863281 19.773438 C 37.863281 18.300781 37.429688 17.6875 35.703125 17.6875 L 33.488281 17.6875 Z M 33.488281 17.046875 L 35.664062 17.046875 C 37.246094 17.046875 37.980469 16.457031 37.980469 15.277344 C 37.980469 14.175781 37.261719 13.546875 35.855469 13.546875 L 33.488281 13.546875 Z M 33.488281 17.046875 " fill-opacity="1" fill-rule="nonzero"/><path fill="#ffffff" d="M 40.925781 12.90625 L 41.621094 12.90625 L 41.621094 17.570312 C 42.339844 16.878906 44.914062 14.472656 46.523438 12.90625 L 47.449219 12.90625 L 43.410156 16.726562 L 47.683594 21.875 L 46.820312 21.875 L 42.90625 17.171875 L 41.621094 18.300781 L 41.621094 21.871094 L 40.925781 21.871094 Z M 40.925781 12.90625 " fill-opacity="1" fill-rule="nonzero"/><path fill="#ffffff" d="M 22.589844 29.433594 C 22.589844 27.832031 22.601562 26.300781 22.636719 25.484375 L 22.601562 25.484375 C 22.273438 26.582031 20.601562 30.617188 19.558594 33.199219 L 18.9375 33.199219 C 18.148438 31.199219 16.421875 26.710938 16.042969 25.46875 L 16.019531 25.46875 C 16.078125 26.40625 16.105469 28.3125 16.105469 29.714844 L 16.105469 33.199219 L 15.46875 33.199219 L 15.46875 25.011719 L 16.421875 25.011719 C 17.550781 27.820312 18.972656 31.492188 19.277344 32.414062 L 19.300781 32.414062 C 19.488281 31.816406 21.132812 27.738281 22.285156 25.011719 L 23.226562 25.011719 L 23.226562 33.199219 L 22.589844 33.199219 Z M 22.589844 29.433594 " fill-opacity="1" fill-rule="nonzero"/><path fill="#ffffff" d="M 32.433594 29.050781 C 32.433594 31.285156 31.234375 33.316406 28.699219 33.316406 C 26.382812 33.316406 25.03125 31.457031 25.03125 29.109375 C 25.03125 26.792969 26.335938 24.898438 28.78125 24.898438 C 31.039062 24.898438 32.433594 26.664062 32.433594 29.050781 Z M 25.714844 29.074219 C 25.714844 30.957031 26.761719 32.734375 28.734375 32.734375 C 30.863281 32.734375 31.757812 31.003906 31.757812 29.0625 C 31.757812 27.15625 30.746094 25.484375 28.761719 25.484375 C 26.644531 25.484375 25.714844 27.226562 25.714844 29.074219 Z M 25.714844 29.074219 " fill-opacity="1" fill-rule="nonzero"/><path fill="#ffffff" d="M 34.246094 25.015625 L 36.972656 25.015625 C 39.226562 25.015625 40.789062 26.582031 40.789062 29.039062 C 40.789062 31.480469 39.261719 33.199219 36.960938 33.199219 L 34.246094 33.199219 Z M 34.878906 32.617188 L 36.863281 32.617188 C 39.039062 32.617188 40.109375 31.097656 40.109375 29.074219 C 40.109375 27.273438 39.144531 25.597656 36.863281 25.597656 L 34.878906 25.597656 Z M 34.878906 32.617188 " fill-opacity="1" fill-rule="nonzero"/><path fill="#ffffff" d="M 47.429688 29.179688 L 43.234375 29.179688 L 43.234375 32.617188 L 47.828125 32.617188 L 47.734375 33.199219 L 42.601562 33.199219 L 42.601562 25.015625 L 47.640625 25.015625 L 47.640625 25.597656 L 43.234375 25.597656 L 43.234375 28.59375 L 47.429688 28.59375 Z M 47.429688 29.179688 " fill-opacity="1" fill-rule="nonzero"/></g></g></g></svg>