<svg xmlns="http://www.w3.org/2000/svg" xmlns:xlink="http://www.w3.org/1999/xlink" width="1920" zoomAndPan="magnify" viewBox="0 0 1440 755.249977" height="1007" preserveAspectRatio="xMidYMid meet" version="1.0"><defs><filter x="0%" y="0%" width="100%" height="100%" id="2fdc6c1bdc"><feColorMatrix values="0 0 0 0 1 0 0 0 0 1 0 0 0 0 1 0 0 0 1 0" color-interpolation-filters="sRGB"/></filter><mask id="bd3f0bade8"><g filter="url(#2fdc6c1bdc)"><rect x="-144" width="1728" fill="#000000" y="-75.524998" height="906.299972" fill-opacity="0.098"/></g></mask><clipPath id="8eaf5f4955"><path d="M 1 0.433594 L 755 0.433594 L 755 742.195312 L 1 742.195312 Z M 1 0.433594 " clip-rule="nonzero"/></clipPath><clipPath id="e8a41bab99"><rect x="0" width="756" y="0" height="743"/></clipPath></defs><g mask="url(#bd3f0bade8)"><g transform="matrix(1, 0, 0, 1, 342, 6)"><g clip-path="url(#e8a41bab99)"><g clip-path="url(#8eaf5f4955)"><path fill="#000000" d="M 1.4375 740.546875 L 13.800781 740.542969 L 147.003906 738.945312 L 159.710938 738.652344 L 157.90625 737.90625 L 169.5625 737.777344 L 33.5 738.398438 L 79.207031 738.523438 L 67.925781 739.046875 L 12.6875 738.855469 C 15.886719 738.585938 12.28125 737.554688 1.871094 735.761719 L 55.539062 734.847656 L 23.164062 734.910156 L 37.703125 734.460938 C 25.144531 734.109375 22.78125 733.925781 30.617188 733.914062 L 107.816406 732.707031 L 89.574219 732.769531 C 82.042969 732.671875 83.621094 732.578125 94.308594 732.492188 L 196.703125 732.132812 L 251.167969 731.148438 L 191.871094 731.683594 C 178.046875 731.636719 175.925781 731.546875 185.511719 731.414062 L 286.132812 729.996094 L 312.414062 729.738281 L 307.71875 730.117188 L 377.847656 728.476562 C 484.832031 728.300781 487.03125 728.667969 384.445312 729.574219 L 562.65625 728.363281 C 561.226562 728.867188 573.976562 728.957031 600.914062 728.625 C 592.828125 728.632812 592.566406 728.882812 600.125 729.375 L 611.136719 729.539062 L 718.96875 728.992188 C 736.511719 728.808594 734.367188 729.1875 712.535156 730.136719 C 724.992188 730.0625 731.574219 730.347656 732.28125 730.992188 L 725.621094 737.257812 C 725.425781 514.359375 724.433594 328.507812 722.636719 179.707031 L 724.1875 255.542969 L 726.195312 660.476562 L 726.488281 693.613281 C 726.496094 698.445312 726.628906 699.097656 726.886719 695.566406 C 725.785156 341.503906 724.707031 150.332031 723.652344 122.054688 L 723.644531 112.738281 L 724.847656 144.871094 L 723.722656 57.121094 L 725.722656 134.269531 L 723.402344 0.375 L 725.75 81.199219 L 725.933594 52.511719 L 730.714844 455.796875 L 728.992188 147.617188 L 730.0625 218.84375 L 730.636719 236.347656 C 730.773438 223.296875 730.921875 222.378906 731.082031 233.585938 L 732.664062 425.925781 C 732.699219 435.714844 732.820312 433.28125 733.03125 418.625 L 733.617188 460.550781 L 733.664062 423.332031 L 734.488281 510.355469 C 735.453125 473.664062 735.800781 452.621094 735.539062 447.230469 C 736.242188 425.472656 736.636719 423.117188 736.730469 440.160156 L 737.5625 395.730469 L 738.003906 399.039062 L 740.5 329.1875 L 738.359375 410.164062 L 741.179688 326.476562 C 741.398438 321.246094 741.5 320.078125 741.484375 322.976562 L 734.628906 547.109375 L 735.121094 611.449219 C 735.292969 570.070312 735.511719 561.640625 735.769531 586.167969 L 735.65625 562.945312 C 735.882812 548.921875 736.097656 548.253906 736.296875 560.945312 L 735.9375 627.65625 C 737.667969 558.445312 738.664062 531.878906 738.929688 547.949219 C 735.699219 624.589844 734.789062 683.578125 736.199219 724.90625 L 738.007812 643.675781 L 738.386719 644.597656 L 743.460938 491.519531 L 743.871094 472.015625 L 740.542969 563.335938 L 745.15625 418.445312 L 748.574219 322.257812 L 749.007812 311.910156 L 748.308594 339.957031 L 749.042969 320.144531 L 751.875 224.566406 L 751.738281 247.105469 L 754.765625 157.753906 L 736.410156 735.824219 L 735.871094 741.53125 L 723.898438 741.34375 L 736.683594 741.921875 L 741.601562 581.742188 L 738.160156 742.195312 L 704.976562 741.378906 L 480.628906 740.753906 L 496.527344 740.300781 L 447.125 740.480469 L 583.054688 739.398438 L 528.75 738.914062 C 461.511719 739.175781 413.574219 739.84375 384.9375 740.917969 L 403.507812 740.191406 L 392.488281 739.628906 L 402.269531 739.589844 L 400.425781 739.285156 L 261.214844 741.136719 C 323.8125 739.625 329.46875 739.160156 278.175781 739.734375 L 246.191406 740.53125 C 257.019531 740.078125 233.546875 740.402344 175.777344 741.507812 C 173.96875 741.921875 166.589844 741.535156 153.640625 740.351562 L 1.4375 740.546875 " fill-opacity="1" fill-rule="nonzero"/></g></g></g></g></svg>