<svg xmlns="http://www.w3.org/2000/svg" xmlns:xlink="http://www.w3.org/1999/xlink" width="1920" zoomAndPan="magnify" viewBox="0 0 1440 755.249977" height="1007" preserveAspectRatio="xMidYMid meet" version="1.0"><defs><filter x="0%" y="0%" width="100%" height="100%" id="263ca3cd17"><feColorMatrix values="0 0 0 0 1 0 0 0 0 1 0 0 0 0 1 0 0 0 1 0" color-interpolation-filters="sRGB"/></filter><mask id="a11b705940"><g filter="url(#263ca3cd17)"><rect x="-144" width="1728" fill="#000000" y="-75.524998" height="906.299972" fill-opacity="0.8588"/></g></mask><clipPath id="957b1856e6"><path d="M 0.59375 5 L 80 5 L 80 52.019531 L 0.59375 52.019531 Z M 0.59375 5 " clip-rule="nonzero"/></clipPath><clipPath id="39f424790e"><path d="M 0.59375 0.320312 L 58 0.320312 L 58 15 L 0.59375 15 Z M 0.59375 0.320312 " clip-rule="nonzero"/></clipPath><clipPath id="24f61873e2"><rect x="0" width="81" y="0" height="53"/></clipPath></defs><g mask="url(#a11b705940)"><g transform="matrix(1, 0, 0, 1, 678, 351)"><g clip-path="url(#24f61873e2)"><g clip-path="url(#957b1856e6)"><path fill="#393536" d="M 77.453125 10.339844 C 72.21875 6.355469 67.726562 11.710938 67.726562 11.710938 L 67.660156 11.710938 C 67.710938 11.476562 67.726562 11.253906 67.726562 11.019531 C 67.726562 8.90625 65.851562 6.953125 62.597656 5.285156 C 63.503906 6.261719 63.996094 7.300781 63.996094 8.371094 C 63.996094 14.375 48.660156 19.261719 29.757812 19.261719 C 17.457031 19.261719 6.679688 17.195312 0.632812 14.105469 C 4.820312 18.613281 17.933594 21.90625 33.472656 21.90625 C 43.1875 21.90625 51.964844 20.613281 58.203125 18.550781 C 58.011719 32.621094 52.675781 44.582031 44.550781 52.019531 C 49.742188 49.9375 54.359375 46.347656 58.089844 41.636719 C 78.804688 34.261719 83.722656 15.117188 77.453125 10.339844 Z M 61.597656 36.371094 C 64.566406 31.09375 66.597656 24.871094 67.359375 18 C 70.40625 15.070312 75.929688 13.730469 72.820312 23.183594 C 70.691406 29.644531 64.996094 34.164062 61.597656 36.371094 Z M 61.597656 36.371094 " fill-opacity="1" fill-rule="nonzero"/></g><g clip-path="url(#39f424790e)"><path fill="#393536" d="M 3.757812 10.230469 C 3.757812 5.410156 17.597656 1.484375 34.679688 1.484375 C 43.820312 1.484375 52.027344 2.605469 57.695312 4.386719 C 52.21875 1.941406 42.550781 0.320312 31.566406 0.320312 C 14.472656 0.335938 0.632812 4.242188 0.632812 9.082031 C 0.632812 11.316406 3.632812 13.367188 8.550781 14.925781 C 5.503906 13.554688 3.757812 11.964844 3.757812 10.230469 Z M 3.757812 10.230469 " fill-opacity="1" fill-rule="nonzero"/></g></g></g></g></svg>